<svg 
 xmlns="http://www.w3.org/2000/svg"
 xmlns:xlink="http://www.w3.org/1999/xlink"
 width="99px" height="88px">
<path fill-rule="evenodd"  fill="rgb(255, 255, 255)"
 d="M38.847,82.370 L7.908,82.370 C6.490,82.370 5.333,81.215 5.333,79.794 L5.333,74.649 C5.333,59.044 18.055,46.341 33.698,46.341 C35.121,46.341 36.273,45.192 36.273,43.772 C36.273,42.344 35.121,41.196 33.698,41.196 C33.691,41.196 33.691,41.196 33.691,41.196 C23.738,41.196 15.638,33.112 15.638,23.185 C15.638,13.251 23.738,5.167 33.691,5.167 C43.639,5.167 51.739,13.251 51.739,23.185 C51.739,24.720 51.551,26.238 51.169,27.683 C50.812,29.055 51.642,30.464 53.017,30.821 C54.435,31.190 55.810,30.349 56.168,28.977 C56.652,27.108 56.895,25.156 56.895,23.185 C56.895,10.409 46.486,0.022 33.691,0.022 C20.891,0.022 10.483,10.409 10.483,23.185 C10.483,31.800 15.275,39.243 22.290,43.234 C9.417,47.901 0.172,60.205 0.172,74.649 L0.172,79.794 C0.172,84.057 3.643,87.515 7.908,87.515 L38.847,87.515 C40.271,87.515 41.428,86.367 41.428,84.946 C41.428,83.519 40.271,82.370 38.847,82.370 "/>
<path fill-rule="evenodd"  fill="rgb(255, 255, 255)"
 d="M95.733,40.986 C94.618,37.885 91.413,36.198 88.299,37.062 C85.827,37.739 82.096,38.144 78.346,36.191 C76.861,35.412 75.516,34.341 74.359,33.011 C72.039,30.327 67.538,30.339 65.229,33.011 C64.066,34.341 62.727,35.412 61.237,36.191 C57.493,38.144 53.762,37.739 51.290,37.062 C48.158,36.198 44.965,37.896 43.856,40.986 C41.693,46.996 39.028,58.852 45.444,70.703 C52.483,83.702 65.115,86.792 68.828,87.433 C69.155,87.487 69.470,87.517 69.791,87.517 C70.112,87.517 70.427,87.487 70.761,87.433 C74.468,86.792 87.100,83.696 94.139,70.703 C100.555,58.852 97.889,46.996 95.733,40.986 M89.608,68.254 C83.671,79.210 73.009,81.822 69.700,82.360 C66.575,81.822 55.918,79.216 49.975,68.254 C44.517,58.169 46.843,47.927 48.709,42.721 C48.873,42.262 49.236,41.984 49.648,41.984 C49.739,41.984 49.830,41.996 49.914,42.020 C53.283,42.951 58.396,43.489 63.624,40.750 C65.690,39.674 67.544,38.199 69.125,36.373 C69.592,35.847 69.979,35.835 70.458,36.373 C72.039,38.199 73.893,39.674 75.959,40.750 C81.193,43.483 86.306,42.945 89.668,42.020 C90.196,41.869 90.674,42.159 90.874,42.721 C92.746,47.927 95.066,58.169 89.608,68.254 "/>
<path fill-rule="evenodd"  fill="rgb(255, 255, 255)"
 d="M75.702,52.243 L67.209,60.720 L63.877,57.389 C62.871,56.385 61.242,56.385 60.230,57.389 C59.224,58.398 59.224,60.025 60.230,61.028 L65.391,66.174 C65.894,66.681 66.555,66.929 67.209,66.929 C67.869,66.929 68.530,66.681 69.032,66.174 L79.350,55.883 C80.355,54.880 80.355,53.247 79.350,52.243 C78.344,51.240 76.708,51.240 75.702,52.243 "/>
</svg>