<svg 
 xmlns="http://www.w3.org/2000/svg"
 xmlns:xlink="http://www.w3.org/1999/xlink"
 width="120px" height="134px">
<path fill-rule="evenodd"  fill="rgb(255, 255, 255)"
 d="M87.385,29.493 C78.785,21.758 67.267,18.104 55.778,19.459 C33.578,21.993 17.639,42.002 20.178,64.160 C21.686,77.355 29.604,88.967 41.346,95.209 L41.346,119.017 C41.352,121.642 43.481,123.767 46.111,123.773 L50.869,123.773 L50.869,128.522 C50.875,131.147 53.004,133.271 55.633,133.278 L65.156,133.278 C67.785,133.271 69.914,131.147 69.920,128.522 L69.920,123.773 L74.678,123.773 C77.308,123.767 79.437,121.642 79.443,119.017 L79.443,95.209 C99.152,84.735 106.624,60.290 96.124,40.611 C93.886,36.422 90.931,32.660 87.385,29.493 M74.678,109.512 L46.111,109.512 L46.111,104.757 L74.678,104.757 L74.678,109.512 ZM65.162,128.522 L55.633,128.522 L55.633,123.773 L65.156,123.773 L65.162,128.522 ZM67.538,119.017 L46.111,119.017 L46.111,114.262 L74.678,114.262 L74.678,119.017 L67.538,119.017 ZM76.017,91.622 C75.197,92.019 74.678,92.850 74.678,93.759 L74.678,100.007 L62.774,100.007 L62.774,89.106 L69.221,82.677 C70.137,81.732 70.107,80.227 69.161,79.312 C68.237,78.427 66.778,78.427 65.856,79.312 L60.398,84.766 L54.934,79.312 C53.993,78.403 52.485,78.427 51.569,79.372 C50.676,80.293 50.676,81.756 51.569,82.677 L58.015,89.106 L58.015,100.007 L46.111,100.007 L46.111,93.759 C46.111,92.850 45.592,92.019 44.772,91.622 C27.041,83.026 19.647,61.710 28.259,44.013 C33.597,33.051 44.175,25.574 56.303,24.184 C57.678,24.033 59.059,23.955 60.446,23.955 C69.221,23.931 77.694,27.164 84.207,33.039 C98.898,46.144 100.164,68.657 87.030,83.321 C83.936,86.776 80.197,89.593 76.017,91.622 Z"/>
<path fill-rule="evenodd"  fill="rgb(255, 255, 255)"
 d="M60.395,14.451 C61.710,14.451 62.777,13.386 62.777,12.074 L62.777,2.569 C62.777,1.257 61.710,0.191 60.395,0.191 C59.080,0.191 58.013,1.257 58.013,2.569 L58.013,12.074 C58.013,13.386 59.080,14.451 60.395,14.451 "/>
<path fill-rule="evenodd"  fill="rgb(255, 255, 255)"
 d="M25.041,27.676 C25.951,28.622 27.459,28.646 28.406,27.737 C29.353,26.822 29.377,25.317 28.466,24.372 C28.448,24.354 28.430,24.336 28.406,24.318 L21.676,17.594 C20.759,16.649 19.251,16.624 18.304,17.533 C17.357,18.448 17.334,19.953 18.250,20.899 C18.268,20.917 18.286,20.935 18.304,20.953 L25.041,27.676 Z"/>
<path fill-rule="evenodd"  fill="rgb(255, 255, 255)"
 d="M12.777,57.229 L3.254,57.229 C1.940,57.229 0.872,58.294 0.872,59.606 C0.872,60.919 1.940,61.984 3.254,61.984 L12.777,61.984 C14.092,61.984 15.159,60.919 15.159,59.606 C15.159,58.294 14.092,57.229 12.777,57.229 "/>
<path fill-rule="evenodd"  fill="rgb(255, 255, 255)"
 d="M25.041,91.533 L18.304,98.257 C17.357,99.166 17.334,100.671 18.250,101.616 C19.161,102.561 20.669,102.586 21.615,101.677 C21.633,101.653 21.651,101.634 21.676,101.616 L28.406,94.892 C29.323,93.947 29.293,92.442 28.352,91.533 C27.429,90.643 25.963,90.643 25.041,91.533 "/>
<path fill-rule="evenodd"  fill="rgb(255, 255, 255)"
 d="M99.117,17.594 L92.381,24.318 C91.434,25.227 91.410,26.732 92.326,27.677 C93.237,28.622 94.745,28.646 95.692,27.737 C95.710,27.713 95.728,27.695 95.752,27.677 L102.482,20.953 C103.429,20.044 103.453,18.539 102.542,17.594 C101.626,16.649 100.124,16.625 99.177,17.534 C99.154,17.552 99.135,17.576 99.117,17.594 Z"/>
<path fill-rule="evenodd"  fill="rgb(255, 255, 255)"
 d="M95.749,91.533 C94.802,90.625 93.295,90.649 92.384,91.594 C91.492,92.515 91.492,93.972 92.384,94.892 L99.114,101.616 C100.061,102.525 101.569,102.501 102.486,101.556 C103.373,100.635 103.373,99.178 102.486,98.257 L95.749,91.533 Z"/>
<path fill-rule="evenodd"  fill="rgb(255, 255, 255)"
 d="M117.537,57.229 L108.015,57.229 C106.700,57.229 105.632,58.294 105.632,59.606 C105.632,60.919 106.700,61.984 108.015,61.984 L117.537,61.984 C118.852,61.984 119.919,60.919 119.919,59.606 C119.919,58.294 118.852,57.229 117.537,57.229 "/>
</svg>