<svg 
 xmlns="http://www.w3.org/2000/svg"
 xmlns:xlink="http://www.w3.org/1999/xlink"
 width="126.676px" height="106.117px">
<path fill-rule="evenodd"  fill="rgb(255, 255, 255)"
 d="M60.338,80.289 L51.165,71.597 C50.266,70.742 50.230,69.321 51.086,68.424 C51.942,67.527 53.366,67.491 54.265,68.346 L61.489,75.190 L74.552,55.512 C75.240,54.483 76.639,54.200 77.670,54.886 C78.707,55.566 78.990,56.963 78.303,57.992 C78.303,57.992 63.769,79.892 63.763,79.904 C63.015,81.023 61.326,81.234 60.338,80.289 "/>
<path fill-rule="evenodd"  fill="rgb(255, 255, 255)"
 d="M61.396,104.351 C51.336,98.861 43.297,90.922 37.634,80.490 C32.942,71.839 30.868,63.364 29.957,57.777 C29.710,56.267 30.397,54.774 31.712,53.985 C37.122,50.722 41.042,45.588 42.737,39.514 C43.183,37.913 44.654,36.793 46.313,36.781 L79.241,36.588 C80.905,36.588 82.383,37.684 82.848,39.279 C84.620,45.329 88.595,50.421 94.047,53.618 C95.367,54.394 96.073,55.875 95.844,57.392 C94.999,62.990 93.028,71.484 88.432,80.195 C82.896,90.687 74.947,98.723 64.954,104.327 C64.007,104.863 62.644,105.031 61.396,104.351 M34.480,57.555 C35.379,62.798 37.333,70.509 41.591,78.352 C46.753,87.870 54.008,95.213 63.151,100.192 C72.233,95.105 79.398,87.677 84.452,78.100 C88.619,70.202 90.482,62.473 91.315,57.224 C85.266,53.528 80.815,47.833 78.698,41.079 L46.910,41.266 C44.871,48.044 40.487,53.792 34.480,57.555 "/>
<path fill-rule="evenodd"  fill="rgb(255, 255, 255)"
 d="M104.666,81.901 L96.156,81.901 C95.155,81.901 94.353,81.094 94.353,80.101 C94.353,79.108 95.155,78.301 96.156,78.301 L104.666,78.301 C113.567,78.301 120.810,71.078 120.810,62.187 C120.810,53.302 113.567,46.018 104.666,46.072 C102.609,46.090 102.428,44.736 102.410,41.877 C102.283,21.789 86.036,5.446 65.912,5.446 C51.220,5.446 37.440,14.788 32.006,28.369 C31.723,29.073 30.957,29.476 29.443,29.476 C15.953,29.488 4.982,40.432 4.982,53.892 C4.982,67.352 15.953,78.301 29.443,78.301 C30.438,78.301 31.247,79.108 31.247,80.101 C31.247,81.094 30.438,81.901 29.443,81.901 C13.968,81.901 1.382,69.338 1.382,53.892 C1.382,38.548 13.805,26.045 29.142,25.882 C37.784,5.133 57.734,1.846 65.912,1.846 C88.026,1.846 106.017,19.803 106.017,41.877 C106.017,42.087 106.010,42.304 106.010,42.521 C116.275,43.213 124.416,51.767 124.416,62.187 C124.416,73.058 115.557,81.901 104.666,81.901 "/>
<path fill-rule="evenodd"  stroke="rgb(255, 255, 255)" stroke-width="1.117px" stroke-linecap="butt" stroke-linejoin="miter" fill="none"
 d="M104.666,81.901 L96.156,81.901 C95.155,81.901 94.353,81.094 94.353,80.101 C94.353,79.108 95.155,78.301 96.156,78.301 L104.666,78.301 C113.567,78.301 120.810,71.078 120.810,62.187 C120.810,53.302 113.567,46.018 104.666,46.072 C102.609,46.090 102.428,44.736 102.410,41.877 C102.283,21.789 86.036,5.446 65.912,5.446 C51.220,5.446 37.440,14.788 32.006,28.369 C31.723,29.073 30.957,29.476 29.443,29.476 C15.953,29.488 4.982,40.432 4.982,53.892 C4.982,67.352 15.953,78.301 29.443,78.301 C30.438,78.301 31.247,79.108 31.247,80.101 C31.247,81.094 30.438,81.901 29.443,81.901 C13.968,81.901 1.382,69.338 1.382,53.892 C1.382,38.548 13.805,26.045 29.142,25.882 C37.784,5.133 57.734,1.846 65.912,1.846 C88.026,1.846 106.017,19.803 106.017,41.877 C106.017,42.087 106.010,42.304 106.010,42.521 C116.275,43.213 124.416,51.767 124.416,62.187 C124.416,73.058 115.557,81.901 104.666,81.901 Z"/>
</svg>
