<svg 
 xmlns="http://www.w3.org/2000/svg"
 xmlns:xlink="http://www.w3.org/1999/xlink"
 width="144px" height="93px">
<path fill-rule="evenodd"  fill="rgb(255, 255, 255)"
 d="M143.588,43.907 L123.711,10.440 C123.176,9.542 122.105,9.111 121.095,9.390 C110.672,12.274 106.839,10.823 102.403,9.147 C97.968,7.465 92.978,5.582 81.886,7.653 C80.621,3.372 76.653,0.245 71.963,0.245 C67.277,0.245 63.304,3.372 62.039,7.653 C50.947,5.582 45.957,7.471 41.528,9.147 C37.086,10.823 33.259,12.274 22.837,9.390 C21.827,9.111 20.749,9.542 20.220,10.440 L0.342,43.907 C0.062,44.381 -0.041,44.939 0.050,45.480 C1.912,56.265 11.234,64.099 22.216,64.099 C33.199,64.099 42.520,56.265 44.375,45.480 C44.467,44.939 44.370,44.381 44.083,43.907 L26.974,15.092 C35.115,16.525 39.198,14.977 43.171,13.477 C47.290,11.922 51.549,10.313 61.765,12.317 C62.471,16.422 65.610,19.707 69.644,20.637 L69.657,69.497 L53.222,69.497 C52.273,69.497 51.422,70.074 51.068,70.955 L48.111,78.363 L41.662,78.363 C40.378,78.363 39.338,79.402 39.338,80.677 L39.338,90.162 C39.338,91.444 40.378,92.476 41.662,92.476 L102.281,92.476 C103.565,92.476 104.606,91.444 104.606,90.162 L104.606,80.677 C104.606,79.402 103.565,78.363 102.281,78.363 L95.832,78.363 L92.875,70.955 C92.528,70.074 91.670,69.497 90.721,69.497 L74.299,69.497 L74.287,20.637 C78.321,19.707 81.460,16.422 82.160,12.317 C92.382,10.313 96.641,11.916 100.760,13.477 C104.733,14.977 108.816,16.525 116.957,15.092 L99.841,43.907 C99.562,44.381 99.458,44.939 99.555,45.480 C101.411,56.265 110.732,64.099 121.715,64.099 C132.697,64.099 142.019,56.265 143.875,45.480 C143.972,44.939 143.868,44.381 143.588,43.907 M22.216,59.465 C14.446,59.465 7.735,54.534 5.320,47.405 L39.112,47.405 C36.697,54.534 29.980,59.465 22.216,59.465 M38.017,42.771 L6.415,42.771 L22.216,16.167 L38.017,42.771 ZM99.963,87.849 L43.980,87.849 L43.980,82.997 L99.963,82.997 L99.963,87.849 ZM90.836,78.363 L53.107,78.363 L54.798,74.131 L71.981,74.131 L89.145,74.131 L90.836,78.363 ZM71.968,16.270 L71.968,16.270 L71.963,16.270 C68.817,16.264 66.255,13.714 66.255,10.574 C66.255,7.428 68.817,4.878 71.963,4.878 C75.114,4.878 77.670,7.435 77.670,10.574 C77.670,13.714 75.114,16.264 71.968,16.270 M121.715,16.167 L137.516,42.771 L105.914,42.771 L121.715,16.167 ZM121.715,59.465 C113.951,59.465 107.234,54.534 104.819,47.405 L138.611,47.405 C136.196,54.534 129.479,59.465 121.715,59.465 "/>
</svg>
