<svg 
 xmlns="http://www.w3.org/2000/svg"
 xmlns:xlink="http://www.w3.org/1999/xlink"
 width="110px" height="115px">
<path fill-rule="evenodd"  fill="rgb(255, 255, 255)"
 d="M55.161,22.797 C36.012,22.797 20.433,38.350 20.433,57.469 C20.433,76.587 36.012,92.141 55.161,92.141 C74.304,92.141 89.881,76.587 89.881,57.469 C89.881,38.350 74.304,22.797 55.161,22.797 M55.161,85.052 C39.902,85.052 27.533,72.703 27.533,57.469 C27.533,42.240 39.902,29.891 55.161,29.891 C70.414,29.891 82.782,42.240 82.782,57.469 C82.764,72.691 70.407,85.034 55.161,85.052 M109.205,69.739 L105.574,57.943 C105.460,57.637 105.460,57.300 105.574,56.993 L109.205,45.204 C110.313,41.693 109.073,37.863 106.104,35.675 L96.222,28.267 C95.952,28.087 95.753,27.811 95.662,27.498 L91.664,15.828 C90.496,12.335 87.232,9.966 83.547,9.936 L71.190,9.744 C70.865,9.756 70.540,9.654 70.281,9.449 L60.176,2.355 C57.172,0.215 53.143,0.215 50.139,2.355 L40.034,9.449 C39.775,9.654 39.450,9.756 39.125,9.744 L26.768,9.936 C23.083,9.966 19.826,12.335 18.651,15.828 L14.653,27.498 C14.562,27.811 14.363,28.087 14.093,28.267 L4.211,35.675 C1.242,37.863 0.002,41.693 1.110,45.204 L4.741,56.993 C4.856,57.300 4.856,57.637 4.741,57.943 L1.110,69.733 C0.002,73.244 1.242,77.074 4.211,79.263 L14.093,86.670 C14.363,86.856 14.562,87.127 14.653,87.439 L18.651,99.115 C19.826,102.602 23.083,104.971 26.768,105.001 L39.125,105.193 C39.450,105.181 39.775,105.289 40.034,105.488 L50.139,112.582 C53.143,114.722 57.172,114.722 60.176,112.582 L70.281,105.488 C70.540,105.289 70.865,105.181 71.190,105.193 L83.547,105.001 C87.232,104.971 90.496,102.602 91.664,99.115 L95.662,87.439 C95.753,87.127 95.952,86.856 96.222,86.670 L106.104,79.263 C109.073,77.074 110.313,73.244 109.205,69.739 M101.847,73.593 L91.959,81.000 C90.550,82.034 89.496,83.483 88.948,85.143 L84.944,96.818 C84.745,97.480 84.125,97.924 83.438,97.912 L71.082,98.105 C69.330,98.117 67.626,98.670 66.198,99.686 L56.088,106.780 C55.540,107.201 54.775,107.201 54.227,106.780 L44.117,99.686 C42.689,98.670 40.986,98.117 39.233,98.105 L26.883,97.912 C26.190,97.924 25.576,97.480 25.371,96.818 L21.373,85.143 C20.819,83.483 19.765,82.034 18.356,81.000 L8.468,73.593 C7.902,73.196 7.668,72.475 7.896,71.820 L11.528,60.030 C12.064,58.364 12.064,56.573 11.528,54.907 L7.896,43.118 C7.668,42.462 7.902,41.741 8.468,41.344 L18.356,33.937 C19.765,32.903 20.819,31.454 21.367,29.795 L25.371,18.119 C25.570,17.458 26.190,17.013 26.876,17.025 L39.233,16.832 C40.986,16.820 42.689,16.267 44.117,15.251 L54.227,8.157 C54.775,7.742 55.540,7.742 56.094,8.157 L66.198,15.251 C67.619,16.273 69.330,16.826 71.082,16.832 L83.432,17.025 C84.125,17.013 84.739,17.464 84.944,18.119 L88.942,29.795 C89.496,31.454 90.550,32.903 91.959,33.937 L101.847,41.344 C102.413,41.741 102.647,42.462 102.419,43.118 L98.788,54.907 C98.252,56.573 98.252,58.364 98.788,60.030 L102.419,71.820 C102.647,72.475 102.413,73.196 101.847,73.593 M74.418,44.933 C75.743,46.376 75.646,48.618 74.201,49.941 L52.035,70.220 C51.379,70.822 50.524,71.152 49.639,71.152 C49.573,71.152 49.500,71.152 49.434,71.146 C48.476,71.092 47.585,70.653 46.959,69.932 L35.837,57.150 C34.548,55.677 34.699,53.434 36.174,52.148 C37.649,50.861 39.896,51.012 41.184,52.484 C41.190,52.490 41.190,52.497 41.196,52.502 L49.928,62.537 L69.402,44.717 C70.847,43.394 73.093,43.490 74.418,44.933 "/>
</svg>
