<svg 
 xmlns="http://www.w3.org/2000/svg"
 xmlns:xlink="http://www.w3.org/1999/xlink"
 width="1479px" height="781px">
<path fill-rule="evenodd"  stroke="rgb(255, 255, 255)" stroke-width="1.215px" stroke-linecap="butt" stroke-linejoin="miter" fill="none"
 d="M660.037,637.256 L660.037,515.132 "/>
<path fill-rule="evenodd"  stroke="rgb(253, 193, 11)" stroke-width="2px" stroke-linecap="butt" stroke-linejoin="miter" fill="none"
 d="M1003.596,760.487 L889.076,515.132 L778.912,641.612 "/>
<path fill-rule="evenodd"  stroke="rgb(255, 255, 255)" stroke-width="3px" stroke-dasharray="NaN, NaN" stroke-linecap="butt" stroke-linejoin="miter" fill="none"
 d="M774.557,760.487 L889.076,637.256 L889.076,760.487 L1463.877,760.487 "/>
<path fill-rule="evenodd"  stroke="rgb(244, 238, 32)" stroke-width="0.5px" stroke-linecap="butt" stroke-linejoin="miter" fill="none"
 d="M774.557,515.132 L882.223,392.463 L1003.596,515.132 "/>
<path fill-rule="evenodd"  stroke="rgb(255, 255, 255)" stroke-width="1.215px" stroke-linecap="butt" stroke-linejoin="miter" fill="none"
 d="M774.557,266.621 L889.076,391.901 L889.076,266.621 L774.557,143.391 L659.037,143.391 L659.037,266.621 L659.037,391.901 L778.912,641.612 L660.037,760.487 "/>
<path fill-rule="evenodd"  stroke="rgb(253, 193, 11)" stroke-width="2px" stroke-linecap="butt" stroke-linejoin="miter" fill="none"
 d="M889.076,515.132 L774.557,391.901 "/>
<path fill-rule="evenodd"  stroke="rgb(255, 255, 255)" stroke-width="3px" stroke-dasharray="NaN, NaN" stroke-linecap="butt" stroke-linejoin="miter" fill="none"
 d="M882.223,144.983 L1003.596,143.391 L1003.596,266.621 L1417.357,266.621 "/>
<path fill-rule="evenodd"  stroke="rgb(255, 255, 255)" stroke-width="2px" stroke-dasharray="NaN, NaN" stroke-linecap="butt" stroke-linejoin="miter" fill="none"
 d="M387.893,391.556 C440.163,391.556 482.536,426.946 482.536,478.768 L482.536,665.140 C482.536,716.962 524.909,758.972 577.178,758.972 L769.197,758.972 "/>
<path fill-rule="evenodd"  stroke="rgb(255, 255, 255)" stroke-width="2px" stroke-dasharray="NaN, NaN" stroke-linecap="butt" stroke-linejoin="miter" fill="none"
 d="M1.105,391.925 L315.054,391.925 C386.458,391.925 444.342,336.023 444.342,257.737 L444.342,167.720 C444.342,89.434 502.226,25.971 573.630,25.971 L1353.559,25.971 "/>
<path fill-rule="evenodd"  stroke="rgb(255, 255, 255)" stroke-width="2px" stroke-dasharray="NaN, NaN" stroke-linecap="butt" stroke-linejoin="miter" fill="none"
 d="M509.267,391.901 C544.898,391.901 573.783,415.629 573.783,450.374 L573.783,575.331 C573.783,610.076 602.669,638.242 638.300,638.242 L769.197,638.242 "/>
<path fill-rule="evenodd"  stroke="rgb(255, 255, 255)" stroke-width="2px" stroke-dasharray="NaN, NaN" stroke-linecap="butt" stroke-linejoin="miter" fill="none"
 d="M180.503,391.925 L431.024,391.925 C488.002,391.925 534.192,354.350 534.192,301.729 L534.192,241.223 C534.192,188.603 580.382,145.945 637.360,145.945 L889.077,145.945 "/>
<path fill-rule="evenodd"  stroke="rgb(255, 255, 255)" stroke-width="5px" stroke-linecap="butt" stroke-linejoin="miter" fill="none"
 d="M1355.354,391.925 L218.050,391.925 "/>
<path fill-rule="evenodd"  fill="rgb(42, 177, 117)"
 d="M755.769,636.280 C755.769,625.903 764.180,617.491 774.557,617.491 C784.933,617.491 793.345,625.903 793.345,636.280 C793.345,646.656 784.933,655.068 774.557,655.068 C764.180,655.068 755.769,646.656 755.769,636.280 Z"/>
<path fill-rule="evenodd"  fill="rgb(42, 177, 117)"
 d="M755.769,759.510 C755.769,749.134 764.180,740.722 774.557,740.722 C784.933,740.722 793.345,749.134 793.345,759.510 C793.345,769.887 784.933,778.299 774.557,778.299 C764.180,778.299 755.769,769.887 755.769,759.510 Z"/>
<path fill-rule="evenodd"  fill="rgb(253, 193, 11)"
 d="M755.769,390.925 C755.769,380.548 764.180,372.137 774.557,372.137 C784.933,372.137 793.345,380.548 793.345,390.925 C793.345,401.302 784.933,409.713 774.557,409.713 C764.180,409.713 755.769,401.302 755.769,390.925 Z"/>
<path fill-rule="evenodd"  fill="rgb(6, 166, 137)"
 d="M755.769,514.155 C755.769,503.779 764.180,495.367 774.557,495.367 C784.933,495.367 793.345,503.779 793.345,514.155 C793.345,524.532 784.933,532.944 774.557,532.944 C764.180,532.944 755.769,524.532 755.769,514.155 Z"/>
<path fill-rule="evenodd"  fill="rgb(253, 193, 11)"
 d="M755.769,142.414 C755.769,132.038 764.180,123.626 774.557,123.626 C784.933,123.626 793.345,132.038 793.345,142.414 C793.345,152.791 784.933,161.203 774.557,161.203 C764.180,161.203 755.769,152.791 755.769,142.414 Z"/>
<path fill-rule="evenodd"  fill="rgb(252, 50, 50)"
 d="M755.769,265.645 C755.769,255.268 764.180,246.856 774.557,246.856 C784.933,246.856 793.345,255.268 793.345,265.645 C793.345,276.021 784.933,284.433 774.557,284.433 C764.180,284.433 755.769,276.021 755.769,265.645 Z"/>
<path fill-rule="evenodd"  fill="rgb(253, 193, 11)"
 d="M641.249,636.280 C641.249,625.903 649.661,617.491 660.037,617.491 C670.414,617.491 678.826,625.903 678.826,636.280 C678.826,646.656 670.414,655.068 660.037,655.068 C649.661,655.068 641.249,646.656 641.249,636.280 Z"/>
<path fill-rule="evenodd"  fill="rgb(6, 166, 137)"
 d="M641.249,759.510 C641.249,749.134 649.661,740.722 660.037,740.722 C670.414,740.722 678.826,749.134 678.826,759.510 C678.826,769.887 670.414,778.299 660.037,778.299 C649.661,778.299 641.249,769.887 641.249,759.510 Z"/>
<path fill-rule="evenodd"  fill="rgb(244, 238, 32)"
 d="M641.249,390.925 C641.249,380.548 649.661,372.137 660.037,372.137 C670.414,372.137 678.826,380.548 678.826,390.925 C678.826,401.302 670.414,409.713 660.037,409.713 C649.661,409.713 641.249,401.302 641.249,390.925 Z"/>
<path fill-rule="evenodd"  fill="rgb(42, 177, 117)"
 d="M641.249,514.155 C641.249,503.779 649.661,495.367 660.037,495.367 C670.414,495.367 678.826,503.779 678.826,514.155 C678.826,524.532 670.414,532.944 660.037,532.944 C649.661,532.944 641.249,524.532 641.249,514.155 Z"/>
<path fill-rule="evenodd"  stroke="rgb(42, 177, 117)" stroke-width="1px" stroke-linecap="butt" stroke-linejoin="miter" fill="rgb(244, 238, 32)"
 d="M641.249,142.414 C641.249,132.038 649.661,123.626 660.037,123.626 C670.414,123.626 678.826,132.038 678.826,142.414 C678.826,152.791 670.414,161.203 660.037,161.203 C649.661,161.203 641.249,152.791 641.249,142.414 Z"/>
<path fill-rule="evenodd"  fill="rgb(253, 193, 11)"
 d="M641.249,265.645 C641.249,255.268 649.661,246.856 660.037,246.856 C670.414,246.856 678.826,255.268 678.826,265.645 C678.826,276.021 670.414,284.433 660.037,284.433 C649.661,284.433 641.249,276.021 641.249,265.645 Z"/>
<path fill-rule="evenodd"  stroke="rgb(42, 177, 117)" stroke-width="1px" stroke-linecap="butt" stroke-linejoin="miter" fill="rgb(6, 166, 137)"
 d="M984.808,636.280 C984.808,625.903 993.219,617.491 1003.596,617.491 C1013.972,617.491 1022.384,625.903 1022.384,636.280 C1022.384,646.656 1013.972,655.068 1003.596,655.068 C993.219,655.068 984.808,646.656 984.808,636.280 Z"/>
<path fill-rule="evenodd"  fill="rgb(42, 177, 117)"
 d="M984.808,759.510 C984.808,749.134 993.219,740.722 1003.596,740.722 C1013.972,740.722 1022.384,749.134 1022.384,759.510 C1022.384,769.887 1013.972,778.299 1003.596,778.299 C993.219,778.299 984.808,769.887 984.808,759.510 Z"/>
<path fill-rule="evenodd"  fill="rgb(42, 177, 117)"
 d="M984.808,390.925 C984.808,380.548 993.219,372.137 1003.596,372.137 C1013.972,372.137 1022.384,380.548 1022.384,390.925 C1022.384,401.302 1013.972,409.713 1003.596,409.713 C993.219,409.713 984.808,401.302 984.808,390.925 Z"/>
<path fill-rule="evenodd"  fill="rgb(253, 193, 11)"
 d="M984.808,514.155 C984.808,503.779 993.219,495.367 1003.596,495.367 C1013.972,495.367 1022.384,503.779 1022.384,514.155 C1022.384,524.532 1013.972,532.944 1003.596,532.944 C993.219,532.944 984.808,524.532 984.808,514.155 Z"/>
<path fill-rule="evenodd"  fill="rgb(42, 177, 117)"
 d="M984.808,142.414 C984.808,132.038 993.219,123.626 1003.596,123.626 C1013.972,123.626 1022.384,132.038 1022.384,142.414 C1022.384,152.791 1013.972,161.203 1003.596,161.203 C993.219,161.203 984.808,152.791 984.808,142.414 Z"/>
<path fill-rule="evenodd"  fill="rgb(42, 177, 117)"
 d="M984.808,265.645 C984.808,255.268 993.219,246.856 1003.596,246.856 C1013.972,246.856 1022.384,255.268 1022.384,265.645 C1022.384,276.021 1013.972,284.433 1003.596,284.433 C993.219,284.433 984.808,276.021 984.808,265.645 Z"/>
<path fill-rule="evenodd"  stroke="rgb(42, 177, 117)" stroke-width="1px" stroke-linecap="butt" stroke-linejoin="miter" fill="rgb(42, 177, 117)"
 d="M870.288,636.280 C870.288,625.903 878.700,617.491 889.076,617.491 C899.453,617.491 907.865,625.903 907.865,636.280 C907.865,646.656 899.453,655.068 889.076,655.068 C878.700,655.068 870.288,646.656 870.288,636.280 Z"/>
<path fill-rule="evenodd"  fill="rgb(253, 193, 11)"
 d="M870.288,759.510 C870.288,749.134 878.700,740.722 889.076,740.722 C899.453,740.722 907.865,749.134 907.865,759.510 C907.865,769.887 899.453,778.299 889.076,778.299 C878.700,778.299 870.288,769.887 870.288,759.510 Z"/>
<path fill-rule="evenodd"  fill="rgb(244, 238, 32)"
 d="M870.288,390.925 C870.288,380.548 878.700,372.137 889.076,372.137 C899.453,372.137 907.865,380.548 907.865,390.925 C907.865,401.302 899.453,409.713 889.076,409.713 C878.700,409.713 870.288,401.302 870.288,390.925 Z"/>
<path fill-rule="evenodd"  fill="rgb(42, 177, 117)"
 d="M870.288,514.155 C870.288,503.779 878.700,495.367 889.076,495.367 C899.453,495.367 907.865,503.779 907.865,514.155 C907.865,524.532 899.453,532.944 889.076,532.944 C878.700,532.944 870.288,524.532 870.288,514.155 Z"/>
<path fill-rule="evenodd"  fill="rgb(244, 238, 32)"
 d="M870.288,142.414 C870.288,132.038 878.700,123.626 889.076,123.626 C899.453,123.626 907.865,132.038 907.865,142.414 C907.865,152.791 899.453,161.203 889.076,161.203 C878.700,161.203 870.288,152.791 870.288,142.414 Z"/>
<path fill-rule="evenodd"  fill="rgb(253, 193, 11)"
 d="M870.288,265.645 C870.288,255.268 878.700,246.856 889.076,246.856 C899.453,246.856 907.865,255.268 907.865,265.645 C907.865,276.021 899.453,284.433 889.076,284.433 C878.700,284.433 870.288,276.021 870.288,265.645 Z"/>
<path fill-rule="evenodd"  fill="rgb(6, 166, 137)"
 d="M1208.873,636.280 C1208.873,625.903 1217.285,617.491 1227.661,617.491 C1238.038,617.491 1246.449,625.903 1246.449,636.280 C1246.449,646.656 1238.038,655.068 1227.661,655.068 C1217.285,655.068 1208.873,646.656 1208.873,636.280 Z"/>
<path fill-rule="evenodd"  fill="rgb(42, 177, 117)"
 d="M1208.873,759.510 C1208.873,749.134 1217.285,740.722 1227.661,740.722 C1238.038,740.722 1246.449,749.134 1246.449,759.510 C1246.449,769.887 1238.038,778.299 1227.661,778.299 C1217.285,778.299 1208.873,769.887 1208.873,759.510 Z"/>
<path fill-rule="evenodd"  stroke="rgb(255, 255, 255)" stroke-width="0.802px" stroke-linecap="butt" stroke-linejoin="miter" fill="none"
 d="M1208.873,390.925 C1208.873,380.548 1217.285,372.137 1227.661,372.137 C1238.038,372.137 1246.449,380.548 1246.449,390.925 C1246.449,401.302 1238.038,409.713 1227.661,409.713 C1217.285,409.713 1208.873,401.302 1208.873,390.925 Z"/>
<path fill-rule="evenodd"  fill="rgb(42, 177, 117)"
 d="M1208.873,514.155 C1208.873,503.779 1217.285,495.367 1227.661,495.367 C1238.038,495.367 1246.449,503.779 1246.449,514.155 C1246.449,524.532 1238.038,532.944 1227.661,532.944 C1217.285,532.944 1208.873,524.532 1208.873,514.155 Z"/>
<path fill-rule="evenodd"  fill="rgb(6, 166, 137)"
 d="M1208.873,142.414 C1208.873,132.038 1217.285,123.626 1227.661,123.626 C1238.038,123.626 1246.449,132.038 1246.449,142.414 C1246.449,152.791 1238.038,161.203 1227.661,161.203 C1217.285,161.203 1208.873,152.791 1208.873,142.414 Z"/>
<path fill-rule="evenodd"  fill="rgb(42, 177, 117)"
 d="M1208.873,265.645 C1208.873,255.268 1217.285,246.856 1227.661,246.856 C1238.038,246.856 1246.449,255.268 1246.449,265.645 C1246.449,276.021 1238.038,284.433 1227.661,284.433 C1217.285,284.433 1208.873,276.021 1208.873,265.645 Z"/>
<path fill-rule="evenodd"  fill="rgb(42, 177, 117)"
 d="M1094.353,636.280 C1094.353,625.903 1102.765,617.491 1113.142,617.491 C1123.518,617.491 1131.930,625.903 1131.930,636.280 C1131.930,646.656 1123.518,655.068 1113.142,655.068 C1102.765,655.068 1094.353,646.656 1094.353,636.280 Z"/>
<path fill-rule="evenodd"  fill="rgb(42, 177, 117)"
 d="M1094.353,759.510 C1094.353,749.134 1102.765,740.722 1113.142,740.722 C1123.518,740.722 1131.930,749.134 1131.930,759.510 C1131.930,769.887 1123.518,778.299 1113.142,778.299 C1102.765,778.299 1094.353,769.887 1094.353,759.510 Z"/>
<path fill-rule="evenodd"  fill="rgb(42, 177, 117)"
 d="M1094.353,390.925 C1094.353,380.548 1102.765,372.137 1113.142,372.137 C1123.518,372.137 1131.930,380.548 1131.930,390.925 C1131.930,401.302 1123.518,409.713 1113.142,409.713 C1102.765,409.713 1094.353,401.302 1094.353,390.925 Z"/>
<path fill-rule="evenodd"  fill="rgb(6, 166, 137)"
 d="M1094.353,514.155 C1094.353,503.779 1102.765,495.367 1113.142,495.367 C1123.518,495.367 1131.930,503.779 1131.930,514.155 C1131.930,524.532 1123.518,532.944 1113.142,532.944 C1102.765,532.944 1094.353,524.532 1094.353,514.155 Z"/>
<path fill-rule="evenodd"  stroke="rgb(42, 177, 117)" stroke-width="1px" stroke-linecap="butt" stroke-linejoin="miter" fill="rgb(42, 177, 117)"
 d="M1094.353,142.414 C1094.353,132.038 1102.765,123.626 1113.142,123.626 C1123.518,123.626 1131.930,132.038 1131.930,142.414 C1131.930,152.791 1123.518,161.203 1113.142,161.203 C1102.765,161.203 1094.353,152.791 1094.353,142.414 Z"/>
<path fill-rule="evenodd"  fill="rgb(42, 177, 117)"
 d="M1094.353,265.645 C1094.353,255.268 1102.765,246.856 1113.142,246.856 C1123.518,246.856 1131.930,255.268 1131.930,265.645 C1131.930,276.021 1123.518,284.433 1113.142,284.433 C1102.765,284.433 1094.353,276.021 1094.353,265.645 Z"/>
<path fill-rule="evenodd"  stroke="rgb(42, 177, 117)" stroke-width="1px" stroke-linecap="butt" stroke-linejoin="miter" fill="rgb(42, 177, 117)"
 d="M1437.912,636.280 C1437.912,625.903 1446.324,617.491 1456.700,617.491 C1467.077,617.491 1475.489,625.903 1475.489,636.280 C1475.489,646.656 1467.077,655.068 1456.700,655.068 C1446.324,655.068 1437.912,646.656 1437.912,636.280 Z"/>
<path fill-rule="evenodd"  fill="rgb(42, 177, 117)"
 d="M1437.912,759.510 C1437.912,749.134 1446.324,740.722 1456.700,740.722 C1467.077,740.722 1475.489,749.134 1475.489,759.510 C1475.489,769.887 1467.077,778.299 1456.700,778.299 C1446.324,778.299 1437.912,769.887 1437.912,759.510 Z"/>
<path fill-rule="evenodd"  fill="rgb(42, 177, 117)"
 d="M1437.912,390.925 C1437.912,380.548 1446.324,372.137 1456.700,372.137 C1467.077,372.137 1475.489,380.548 1475.489,390.925 C1475.489,401.302 1467.077,409.713 1456.700,409.713 C1446.324,409.713 1437.912,401.302 1437.912,390.925 Z"/>
<path fill-rule="evenodd"  fill="rgb(42, 177, 117)"
 d="M1437.912,514.155 C1437.912,503.779 1446.324,495.367 1456.700,495.367 C1467.077,495.367 1475.489,503.779 1475.489,514.155 C1475.489,524.532 1467.077,532.944 1456.700,532.944 C1446.324,532.944 1437.912,524.532 1437.912,514.155 Z"/>
<path fill-rule="evenodd"  fill="rgb(42, 177, 117)"
 d="M1437.912,142.414 C1437.912,132.038 1446.324,123.626 1456.700,123.626 C1467.077,123.626 1475.489,132.038 1475.489,142.414 C1475.489,152.791 1467.077,161.203 1456.700,161.203 C1446.324,161.203 1437.912,152.791 1437.912,142.414 Z"/>
<path fill-rule="evenodd"  fill="rgb(42, 177, 117)"
 d="M1437.912,265.645 C1437.912,255.268 1446.324,246.856 1456.700,246.856 C1467.077,246.856 1475.489,255.268 1475.489,265.645 C1475.489,276.021 1467.077,284.433 1456.700,284.433 C1446.324,284.433 1437.912,276.021 1437.912,265.645 Z"/>
<path fill-rule="evenodd"  stroke="rgb(255, 255, 255)" stroke-width="0.802px" stroke-linecap="butt" stroke-linejoin="miter" fill="none"
 d="M1323.392,636.280 C1323.392,625.903 1331.804,617.491 1342.181,617.491 C1352.557,617.491 1360.969,625.903 1360.969,636.280 C1360.969,646.656 1352.557,655.068 1342.181,655.068 C1331.804,655.068 1323.392,646.656 1323.392,636.280 Z"/>
<path fill-rule="evenodd"  fill="rgb(42, 177, 117)"
 d="M1323.392,759.510 C1323.392,749.134 1331.804,740.722 1342.181,740.722 C1352.557,740.722 1360.969,749.134 1360.969,759.510 C1360.969,769.887 1352.557,778.299 1342.181,778.299 C1331.804,778.299 1323.392,769.887 1323.392,759.510 Z"/>
<path fill-rule="evenodd"  fill="rgb(42, 177, 117)"
 d="M1323.392,390.925 C1323.392,380.548 1331.804,372.137 1342.181,372.137 C1352.557,372.137 1360.969,380.548 1360.969,390.925 C1360.969,401.302 1352.557,409.713 1342.181,409.713 C1331.804,409.713 1323.392,401.302 1323.392,390.925 Z"/>
<path fill-rule="evenodd"  fill="rgb(42, 177, 117)"
 d="M1323.392,514.155 C1323.392,503.779 1331.804,495.367 1342.181,495.367 C1352.557,495.367 1360.969,503.779 1360.969,514.155 C1360.969,524.532 1352.557,532.944 1342.181,532.944 C1331.804,532.944 1323.392,524.532 1323.392,514.155 Z"/>
<path fill-rule="evenodd"  fill="rgb(42, 177, 117)"
 d="M1323.392,142.414 C1323.392,132.038 1331.804,123.626 1342.181,123.626 C1352.557,123.626 1360.969,132.038 1360.969,142.414 C1360.969,152.791 1352.557,161.203 1342.181,161.203 C1331.804,161.203 1323.392,152.791 1323.392,142.414 Z"/>
<path fill-rule="evenodd"  fill="rgb(42, 177, 117)"
 d="M1323.392,265.645 C1323.392,255.268 1331.804,246.856 1342.181,246.856 C1352.557,246.856 1360.969,255.268 1360.969,265.645 C1360.969,276.021 1352.557,284.433 1342.181,284.433 C1331.804,284.433 1323.392,276.021 1323.392,265.645 Z"/>
<path fill-rule="evenodd"  stroke="rgb(42, 177, 117)" stroke-width="1px" stroke-linecap="butt" stroke-linejoin="miter" fill="rgb(42, 177, 117)"
 d="M1114.136,38.734 C1103.760,38.734 1095.348,30.322 1095.348,19.945 C1095.348,9.569 1103.760,1.157 1114.136,1.157 C1124.513,1.157 1132.925,9.569 1132.925,19.945 C1132.925,30.322 1124.513,38.734 1114.136,38.734 Z"/>
<path fill-rule="evenodd"  fill="rgb(42, 177, 117)"
 d="M1227.661,38.734 C1217.285,38.734 1208.873,30.322 1208.873,19.945 C1208.873,9.569 1217.285,1.157 1227.661,1.157 C1238.038,1.157 1246.449,9.569 1246.449,19.945 C1246.449,30.322 1238.038,38.734 1227.661,38.734 Z"/>
<path fill-rule="evenodd"  fill="rgb(6, 166, 137)"
 d="M887.087,38.734 C876.710,38.734 868.298,30.322 868.298,19.945 C868.298,9.569 876.710,1.157 887.087,1.157 C897.463,1.157 905.875,9.569 905.875,19.945 C905.875,30.322 897.463,38.734 887.087,38.734 Z"/>
<path fill-rule="evenodd"  fill="rgb(253, 193, 11)"
 d="M1000.612,38.734 C990.235,38.734 981.823,30.322 981.823,19.945 C981.823,9.569 990.235,1.157 1000.612,1.157 C1010.988,1.157 1019.400,9.569 1019.400,19.945 C1019.400,30.322 1010.988,38.734 1000.612,38.734 Z"/>
<path fill-rule="evenodd"  fill="rgb(42, 177, 117)"
 d="M1342.181,38.734 C1331.804,38.734 1323.392,30.322 1323.392,19.945 C1323.392,9.569 1331.804,1.157 1342.181,1.157 C1352.557,1.157 1360.969,9.569 1360.969,19.945 C1360.969,30.322 1352.557,38.734 1342.181,38.734 Z"/>
<path fill-rule="evenodd"  fill="rgb(42, 177, 117)"
 d="M1456.700,38.734 C1446.324,38.734 1437.912,30.322 1437.912,19.945 C1437.912,9.569 1446.324,1.157 1456.700,1.157 C1467.077,1.157 1475.489,9.569 1475.489,19.945 C1475.489,30.322 1467.077,38.734 1456.700,38.734 Z"/>
<path fill-rule="evenodd"  fill="rgb(42, 177, 117)"
 d="M660.037,38.734 C649.661,38.734 641.249,30.322 641.249,19.945 C641.249,9.569 649.661,1.157 660.037,1.157 C670.414,1.157 678.826,9.569 678.826,19.945 C678.826,30.322 670.414,38.734 660.037,38.734 Z"/>
<path fill-rule="evenodd"  fill="rgb(42, 177, 117)"
 d="M773.562,38.734 C763.186,38.734 754.774,30.322 754.774,19.945 C754.774,9.569 763.186,1.157 773.562,1.157 C783.939,1.157 792.350,9.569 792.350,19.945 C792.350,30.322 783.939,38.734 773.562,38.734 Z"/>
</svg>
