<?xml version="1.0" encoding="UTF-8"?>
<svg id="g" xmlns="http://www.w3.org/2000/svg" version="1.1" xmlns:xlink="http://www.w3.org/1999/xlink" viewBox="0 0 436.6 219">
  <!-- Generator: Adobe Illustrator 29.8.2, SVG Export Plug-In . SVG Version: 2.1.1 Build 3)  -->
  <defs>
    <style>
      .st0 {
        fill: url(#linear-gradient);
        fill-rule: evenodd;
      }
    </style>
    <linearGradient id="linear-gradient" x1="288.6" y1="90.4" x2="288.6" y2="307.4" gradientTransform="translate(-71.3 -90.4)" gradientUnits="userSpaceOnUse">
      <stop offset="0" stop-color="#fc0"/>
      <stop offset=".3" stop-color="#f2f325"/>
      <stop offset=".7" stop-color="#2ab175"/>
    </linearGradient>
  </defs>
  <path class="st0" d="M361.4,35.5c-34.7,6.7-121.2,10.8-145.7,78-28.4-67.3-69.3-61.6-159.1-80.6C5.7,20.8,0,0,0,0l6.7,24.5s-2.1,15.8,123.4,37.2c77.5,13.4,75,82.1,77,117.8,1.4,24,6.5,37.6,9.1,37.4,2.9-.1,6.4-15.3,7.2-36.2,1.3-33.8-.4-94.1,61.7-114.5,36.3-11.9,68.3-9.4,106.4-23.1,29.5-10.5,32.1-17.8,32-17.7l11-21.4s-20.9,24.8-73.2,31.4ZM163.4,86.4c-31.8-18.7-64.7-19.8-91.4-23.5-26.8-3.7-54-15.8-54-15.8l22.8,22.6s11.4,5.3,31.9,7.9c28.1,3.6,70.2,9.7,81.8,21.1,13.2,13,17.4,32.1,20.6,43,3.4,11.3,14.5,33.5,18.2,36,5.8,4,1.8-72.5-30-91.2ZM144,104.2c-24.2-12.3-74.7-15.7-78.5-16.6-3.7-.9,20.7,13.8,26.4,16.1,5.7,2.3,27.9,5.7,38.4,9.6,10.5,3.9,25.1,15.1,30.5,17,5.3,2-6.2-20.8-16.8-26.2ZM267.3,86.9c-31.8,18.7-35.8,95.2-30,91.3,3.7-2.5,14.9-24.7,18.2-36,3.2-10.9,9.2-28.5,20.6-43,9.7-12.3,44.4-16.2,81.8-21.1,23.2-2.2,31.9-7.9,31.9-7.9l22.8-22.6s-27.2,12.1-54,15.9c-26.8,3.7-59.6,4.8-91.4,23.5ZM365.2,88.1c-3.7.9-54.2,4.3-78.4,16.6-10.6,5.4-22.1,28.1-16.8,26.2,5.3-2,20-13.1,30.5-17.1,10.5-3.9,32.7-7.3,38.4-9.6,5.7-2.3,30.1-17,26.4-16.1ZM166.8,41.5c13.6,1.6,31.7,2.5,50.9,2.5s37.3-.9,50.9-2.5c18.6-2.2,25.2-5.1,25.2-11s-6.6-8.8-25.2-11c-13.6-1.6-31.7-2.5-50.9-2.5s-37.3.9-50.9,2.5c-18.6,2.2-25.2,5.1-25.2,11s6.6,8.8,25.2,11ZM217.7,26.9c26.1,0,46.1,1.7,57.4,3.6-11.3,1.9-31.4,3.6-57.4,3.6s-46.1-1.7-57.4-3.6c11.3-1.9,31.4-3.6,57.4-3.6Z"/>
</svg>
