<svg 
 xmlns="http://www.w3.org/2000/svg"
 xmlns:xlink="http://www.w3.org/1999/xlink"
 width="120px" height="91px">
<path fill-rule="evenodd"  fill="rgb(255, 255, 255)"
 d="M89.058,59.307 C78.959,58.359 69.658,53.362 63.301,45.558 C69.762,37.670 79.063,32.690 89.058,31.743 L89.058,41.581 L119.802,21.116 L89.058,0.657 L89.058,10.762 C74.494,11.624 60.807,17.879 50.599,28.312 C46.913,24.553 42.740,21.292 38.177,18.632 C29.229,13.416 19.046,10.659 8.722,10.659 L0.577,10.659 L0.577,31.579 L8.722,31.579 C20.147,31.579 30.889,36.789 37.970,45.491 C30.768,54.285 20.013,59.471 8.722,59.471 L0.577,59.471 L0.577,80.391 L8.722,80.391 C24.581,80.391 39.656,73.996 50.672,62.732 C54.359,66.491 58.538,69.758 63.094,72.411 C71.033,77.039 79.939,79.735 89.058,80.282 L89.058,90.393 L119.802,69.928 L89.058,49.469 L89.058,59.307 ZM92.549,17.630 L96.041,17.630 L96.041,13.683 L107.210,21.116 L96.041,28.549 L96.041,24.601 L92.549,24.601 C79.860,24.601 67.754,30.109 59.268,39.540 C58.033,37.469 56.670,35.484 55.204,33.589 C64.944,23.411 78.394,17.630 92.549,17.630 M8.722,73.413 L7.560,73.413 L7.560,66.442 L8.722,66.442 C21.412,66.442 33.518,60.934 42.003,51.503 C43.245,53.574 44.601,55.560 46.067,57.454 C36.334,67.632 22.878,73.413 8.722,73.413 M96.041,66.442 L96.041,62.495 L107.210,69.928 L96.041,77.361 L96.041,73.413 L92.549,73.413 C74.062,73.413 56.798,63.321 47.497,47.064 C39.564,33.212 24.709,24.601 8.722,24.601 L7.560,24.601 L7.560,17.630 L8.722,17.630 C27.209,17.630 44.473,27.729 53.775,43.979 C61.707,57.837 76.563,66.442 92.549,66.442 L96.041,66.442 Z"/>
</svg>
