<svg 
 xmlns="http://www.w3.org/2000/svg"
 xmlns:xlink="http://www.w3.org/1999/xlink"
 width="112px" height="112px">
<path fill-rule="evenodd"  fill="rgb(255, 255, 255)"
 d="M81.602,58.585 L84.321,55.865 L84.328,55.865 C84.328,55.865 84.328,55.865 84.328,55.859 L93.935,46.270 C93.941,46.270 93.941,46.270 93.941,46.270 L103.548,36.681 L103.548,36.675 L108.830,31.410 C110.521,29.716 111.458,27.469 111.458,25.076 C111.458,22.684 110.521,20.437 108.830,18.749 L93.564,3.512 C91.866,1.818 89.615,0.889 87.218,0.889 C84.821,0.889 82.569,1.818 80.878,3.512 L53.650,30.687 L35.165,12.238 C32.074,9.154 28.192,6.955 23.952,5.887 L4.542,0.986 C3.435,0.707 2.261,1.029 1.445,1.842 C0.636,2.650 0.314,3.822 0.594,4.927 L5.503,24.299 C6.574,28.532 8.777,32.406 11.868,35.491 L30.352,53.940 L3.125,81.115 C1.427,82.803 0.496,85.050 0.496,87.442 C0.496,89.835 1.427,92.082 3.125,93.776 L18.390,109.013 C20.082,110.701 22.333,111.636 24.731,111.636 C27.128,111.636 29.379,110.701 31.076,109.013 L45.959,94.159 C45.959,94.153 45.965,94.153 45.965,94.147 C45.971,94.147 45.971,94.147 45.971,94.141 L58.304,81.837 L83.336,106.820 C86.548,110.021 90.765,111.624 94.982,111.624 C99.204,111.624 103.421,110.021 106.633,106.820 C113.052,100.408 113.052,89.975 106.633,83.568 L81.602,58.585 ZM11.807,22.708 L8.235,8.613 L22.358,12.178 C25.467,12.961 28.302,14.570 30.571,16.830 L33.133,19.386 L19.029,33.463 L16.468,30.906 C14.204,28.641 12.592,25.811 11.807,22.708 M23.629,38.047 L37.727,23.977 L49.050,35.272 L34.946,49.349 L23.629,38.047 ZM24.731,105.144 C24.073,105.144 23.453,104.889 22.984,104.422 L7.718,89.185 C7.256,88.724 7.000,88.104 7.000,87.442 C7.000,86.787 7.256,86.167 7.718,85.700 L85.471,8.097 C85.940,7.635 86.561,7.381 87.218,7.381 C87.881,7.381 88.501,7.635 88.964,8.097 L104.230,23.333 C104.699,23.801 104.954,24.420 104.954,25.076 C104.954,25.738 104.699,26.357 104.230,26.819 L101.248,29.795 L91.337,19.896 C90.065,18.633 88.009,18.633 86.737,19.896 C85.465,21.165 85.465,23.218 86.737,24.487 L96.655,34.386 L91.641,39.389 L86.530,34.288 C85.258,33.019 83.202,33.019 81.930,34.288 C80.659,35.558 80.659,37.610 81.930,38.873 L87.041,43.974 L82.028,48.984 L72.110,39.086 C70.844,37.817 68.782,37.817 67.516,39.086 C66.244,40.349 66.244,42.407 67.516,43.671 L77.428,53.569 L72.414,58.573 L67.304,53.472 C66.037,52.209 63.975,52.209 62.710,53.472 C61.438,54.741 61.438,56.794 62.710,58.063 L67.820,63.164 L62.892,68.083 L52.975,58.184 C51.703,56.915 49.646,56.915 48.374,58.184 C47.109,59.448 47.109,61.506 48.374,62.769 L58.292,72.668 L53.279,77.671 L48.168,72.571 C46.902,71.307 44.839,71.307 43.574,72.571 C42.302,73.840 42.302,75.892 43.574,77.161 L48.685,82.262 L43.665,87.266 L33.754,77.368 C32.482,76.105 30.425,76.105 29.154,77.368 C27.882,78.637 27.882,80.690 29.154,81.959 L39.071,91.857 L34.058,96.861 L28.947,91.760 C27.675,90.491 25.618,90.491 24.347,91.760 C23.075,93.023 23.075,95.082 24.347,96.345 L29.458,101.446 L26.477,104.422 C26.014,104.889 25.394,105.144 24.731,105.144 M65.174,74.975 C65.180,74.969 65.186,74.969 65.192,74.963 C65.192,74.957 65.198,74.957 65.204,74.951 L74.708,65.459 C74.714,65.459 74.714,65.459 74.714,65.459 C74.714,65.453 74.714,65.453 74.720,65.453 L77.002,63.170 L90.777,76.918 L76.673,90.995 L62.898,77.246 L65.174,74.975 ZM102.033,102.229 C98.145,106.110 91.818,106.110 87.930,102.229 L81.273,95.586 L95.377,81.510 L102.033,88.153 C105.921,92.033 105.921,98.349 102.033,102.229 "/>
</svg>
