<svg 
 xmlns="http://www.w3.org/2000/svg"
 xmlns:xlink="http://www.w3.org/1999/xlink"
 width="108px" height="108px">
<path fill-rule="evenodd"  fill="rgb(255, 255, 255)"
 d="M51.466,54.017 C50.236,54.017 49.236,53.019 49.236,51.791 L49.236,29.530 C49.236,28.302 50.236,27.305 51.466,27.305 L58.156,27.305 C63.082,27.305 67.081,31.295 67.081,36.211 C67.081,41.120 63.082,45.111 58.156,45.111 L53.696,45.111 L53.696,51.791 C53.696,53.019 52.696,54.017 51.466,54.017 M53.696,40.660 L58.156,40.660 C60.622,40.660 62.621,38.659 62.621,36.211 C62.621,33.756 60.622,31.755 58.156,31.755 L53.696,31.755 L53.696,40.660 Z"/>
<path fill-rule="evenodd"  fill="rgb(255, 255, 255)"
 d="M64.852,54.018 C64.282,54.018 63.706,53.801 63.270,53.366 L54.345,44.466 C53.478,43.595 53.478,42.186 54.345,41.316 C55.217,40.445 56.635,40.445 57.502,41.316 L66.427,50.221 C67.299,51.086 67.299,52.501 66.427,53.366 C65.997,53.801 65.421,54.018 64.852,54.018 "/>
<path fill-rule="evenodd"  fill="rgb(255, 255, 255)"
 d="M31.386,54.018 C30.398,54.018 29.532,53.372 29.247,52.435 L22.557,30.173 C22.200,28.994 22.866,27.754 24.048,27.398 C25.230,27.047 26.472,27.712 26.829,28.891 L31.386,44.043 L35.942,28.891 C36.294,27.712 37.548,27.053 38.717,27.404 C39.899,27.760 40.572,28.994 40.214,30.173 L33.518,52.441 C33.240,53.372 32.374,54.018 31.386,54.018 "/>
<path fill-rule="evenodd"  fill="rgb(255, 255, 255)"
 d="M82.700,40.662 C79.010,40.662 76.005,37.663 76.005,33.981 C76.005,30.299 79.010,27.306 82.700,27.306 C86.390,27.306 89.396,30.299 89.396,33.981 C89.396,37.663 86.390,40.662 82.700,40.662 M82.700,31.756 C81.470,31.756 80.470,32.754 80.470,33.981 C80.470,35.208 81.470,36.206 82.700,36.206 C83.930,36.206 84.930,35.208 84.930,33.981 C84.930,32.754 83.930,31.756 82.700,31.756 "/>
<path fill-rule="evenodd"  fill="rgb(255, 255, 255)"
 d="M96.084,76.278 L67.842,76.278 C66.885,76.278 66.030,75.667 65.721,74.760 L63.764,68.883 C63.455,67.995 62.594,67.378 61.637,67.378 L45.756,67.378 C44.798,67.378 43.944,67.995 43.617,68.914 L41.666,74.760 C41.363,75.667 40.509,76.278 39.551,76.278 L11.309,76.278 C5.153,76.278 0.148,71.284 0.148,65.147 L0.148,25.079 C0.148,18.942 5.153,13.948 11.309,13.948 L96.084,13.948 C102.241,13.948 107.239,18.942 107.239,25.079 L107.239,65.147 C107.239,71.284 102.241,76.278 96.084,76.278 M69.448,71.828 L96.084,71.828 C99.774,71.828 102.780,68.829 102.780,65.147 L102.780,25.079 C102.780,21.397 99.774,18.398 96.084,18.398 L11.309,18.398 C7.619,18.398 4.613,21.397 4.613,25.079 L4.613,65.147 C4.613,68.829 7.619,71.828 11.309,71.828 L37.945,71.828 L39.394,67.475 C40.357,64.742 42.908,62.922 45.756,62.922 L61.643,62.922 C64.491,62.922 67.036,64.742 67.988,67.444 L69.448,71.828 Z"/>
<path fill-rule="evenodd"  fill="rgb(255, 255, 255)"
 d="M91.624,18.398 C90.394,18.398 89.394,17.401 89.394,16.173 L89.394,11.717 C89.394,8.035 86.389,5.042 82.699,5.042 L24.693,5.042 C21.003,5.042 17.998,8.035 17.998,11.717 L17.998,16.173 C17.998,17.401 16.998,18.398 15.768,18.398 C14.538,18.398 13.538,17.401 13.538,16.173 L13.538,11.717 C13.538,5.587 18.537,0.586 24.693,0.586 L82.699,0.586 C88.855,0.586 93.854,5.587 93.854,11.717 L93.854,16.173 C93.854,17.401 92.854,18.398 91.624,18.398 "/>
<path fill-rule="evenodd"  fill="rgb(255, 255, 255)"
 d="M49.234,107.447 C48.562,107.447 47.889,107.139 47.446,106.559 C46.713,105.573 46.913,104.177 47.901,103.439 L54.445,98.542 L47.895,93.644 C46.907,92.907 46.707,91.510 47.446,90.530 C48.192,89.539 49.585,89.351 50.567,90.083 L59.492,96.764 C60.056,97.181 60.383,97.846 60.383,98.542 C60.383,99.243 60.056,99.908 59.492,100.325 L50.567,107.000 C50.173,107.302 49.700,107.447 49.234,107.447 "/>
<path fill-rule="evenodd"  fill="rgb(255, 255, 255)"
 d="M53.696,100.769 C49.121,100.769 44.462,100.600 39.838,100.274 C20.655,98.895 0.150,94.203 0.150,85.188 C0.150,84.245 0.399,83.278 0.877,82.317 C1.429,81.216 2.780,80.775 3.877,81.325 C4.973,81.875 5.422,83.211 4.870,84.312 C4.701,84.650 4.610,84.947 4.610,85.188 C4.610,88.447 15.905,94.088 40.160,95.836 C44.704,96.156 49.218,96.470 53.787,96.319 C54.841,96.319 55.853,96.319 56.865,96.277 C58.156,96.223 59.137,97.178 59.192,98.411 C59.240,99.639 58.277,100.672 57.053,100.727 C55.944,100.769 54.841,100.769 53.696,100.769 "/>
<path fill-rule="evenodd"  fill="rgb(255, 255, 255)"
 d="M69.265,100.101 C68.120,100.101 67.138,99.219 67.047,98.058 C66.950,96.831 67.859,95.754 69.089,95.652 C92.078,93.777 102.779,88.300 102.779,85.186 C102.779,84.944 102.687,84.654 102.518,84.315 C101.973,83.215 102.421,81.879 103.518,81.328 C104.609,80.766 105.959,81.214 106.517,82.320 C106.996,83.281 107.244,84.249 107.244,85.186 C107.244,96.154 78.317,99.370 69.453,100.096 C69.392,100.101 69.326,100.101 69.265,100.101 "/>
</svg>