<svg 
 xmlns="http://www.w3.org/2000/svg"
 xmlns:xlink="http://www.w3.org/1999/xlink"
 width="104px" height="114px">
<path fill-rule="evenodd"  fill="rgb(255, 255, 255)"
 d="M100.245,17.011 C83.728,17.011 61.999,11.449 54.255,1.144 C53.227,-0.108 51.372,-0.290 50.118,0.737 C49.973,0.858 49.832,0.998 49.717,1.144 C41.967,11.449 20.244,17.011 3.727,17.011 C2.158,17.011 0.886,18.281 0.886,19.847 L0.886,56.684 C0.886,87.843 27.994,106.632 51.208,113.251 C51.713,113.397 52.254,113.397 52.764,113.251 C75.978,106.632 103.079,87.843 103.079,56.684 L103.079,19.847 C103.079,18.281 101.808,17.011 100.245,17.011 M97.404,56.684 C97.404,84.345 73.119,101.306 51.986,107.573 C30.853,101.306 6.568,84.345 6.568,56.684 L6.568,22.629 C22.975,22.076 42.375,16.799 51.986,7.149 C61.592,16.799 80.997,22.076 97.404,22.629 L97.404,56.684 Z"/>
<path fill-rule="evenodd"  fill="rgb(255, 255, 255)"
 d="M38.111,42.835 L38.111,49.758 L34.643,49.758 C32.727,49.758 31.176,51.313 31.176,53.219 L31.176,80.917 C31.176,82.830 32.727,84.384 34.643,84.384 L69.324,84.384 C71.240,84.384 72.797,82.830 72.797,80.917 L72.797,53.219 C72.797,51.313 71.240,49.758 69.324,49.758 L65.856,49.758 L65.856,42.835 C65.856,35.184 59.646,28.989 51.987,28.989 C44.322,28.989 38.111,35.184 38.111,42.835 M65.856,77.455 L38.111,77.455 L38.111,56.681 L65.856,56.681 L65.856,77.455 ZM58.921,42.835 L58.921,49.758 L45.052,49.758 L45.052,42.835 C45.052,39.009 48.154,35.912 51.987,35.912 C55.813,35.912 58.921,39.009 58.921,42.835 "/>
</svg>
