<svg 
 xmlns="http://www.w3.org/2000/svg"
 xmlns:xlink="http://www.w3.org/1999/xlink"
 width="99px" height="88px">
<path fill-rule="evenodd"  fill="rgb(255, 255, 255)"
 d="M38.970,82.201 L8.167,82.201 C6.756,82.201 5.604,81.051 5.604,79.637 L5.604,74.514 C5.604,58.972 18.270,46.330 33.844,46.330 C35.261,46.330 36.407,45.186 36.407,43.772 C36.407,42.351 35.261,41.207 33.844,41.207 C33.838,41.207 33.838,41.207 33.838,41.207 C23.927,41.207 15.863,33.159 15.863,23.275 C15.863,13.385 23.927,5.337 33.838,5.337 C43.741,5.337 51.806,13.385 51.806,23.275 C51.806,24.804 51.619,26.315 51.239,27.754 C50.883,29.120 51.709,30.523 53.078,30.878 C54.490,31.245 55.859,30.408 56.215,29.042 C56.698,27.182 56.939,25.238 56.939,23.275 C56.939,10.556 46.576,0.214 33.838,0.214 C21.093,0.214 10.730,10.556 10.730,23.275 C10.730,31.853 15.501,39.263 22.486,43.236 C9.669,47.883 0.465,60.133 0.465,74.514 L0.465,79.637 C0.465,83.875 3.921,87.324 8.167,87.324 L38.970,87.324 C40.388,87.324 41.540,86.180 41.540,84.766 C41.540,83.345 40.388,82.201 38.970,82.201 "/>
<path fill-rule="evenodd"  fill="rgb(255, 255, 255)"
 d="M95.606,40.999 C94.496,37.911 91.305,36.232 88.205,37.092 C85.744,37.766 82.029,38.170 78.295,36.225 C76.817,35.449 75.478,34.384 74.326,33.053 C72.016,30.387 67.535,30.398 65.236,33.053 C64.079,34.384 62.745,35.449 61.261,36.225 C57.534,38.170 53.818,37.766 51.357,37.092 C48.239,36.232 45.060,37.923 43.957,40.999 C41.804,46.982 39.149,58.787 45.537,70.585 C52.546,83.528 65.122,86.604 68.819,87.242 C69.145,87.296 69.459,87.326 69.778,87.326 C70.098,87.326 70.411,87.296 70.743,87.242 C74.434,86.604 87.011,83.521 94.019,70.585 C100.407,58.787 97.753,46.982 95.606,40.999 M89.508,68.147 C83.597,79.055 72.981,81.655 69.688,82.191 C66.575,81.655 55.966,79.061 50.049,68.147 C44.615,58.107 46.931,47.909 48.788,42.727 C48.951,42.269 49.313,41.992 49.723,41.992 C49.813,41.992 49.904,42.004 49.988,42.028 C53.342,42.955 58.433,43.491 63.638,40.764 C65.695,39.693 67.540,38.224 69.115,36.406 C69.579,35.882 69.965,35.870 70.441,36.406 C72.016,38.224 73.862,39.693 75.918,40.764 C81.130,43.485 86.220,42.949 89.568,42.028 C90.093,41.878 90.569,42.167 90.769,42.727 C92.632,47.909 94.942,58.107 89.508,68.147 "/>
<path fill-rule="evenodd"  fill="rgb(255, 255, 255)"
 d="M75.663,52.206 L67.207,60.646 L63.890,57.329 C62.888,56.330 61.266,56.330 60.259,57.329 C59.257,58.335 59.257,59.954 60.259,60.953 L65.397,66.076 C65.898,66.581 66.556,66.828 67.207,66.828 C67.865,66.828 68.522,66.581 69.022,66.076 L79.294,55.831 C80.296,54.831 80.296,53.206 79.294,52.206 C78.293,51.208 76.665,51.208 75.663,52.206 "/>
</svg>
