<svg 
 xmlns="http://www.w3.org/2000/svg"
 xmlns:xlink="http://www.w3.org/1999/xlink"
 width="127.092px" height="125.638px">
<path fill-rule="evenodd"  fill="rgb(255, 255, 255)"
 d="M3.064,76.301 L21.587,76.301 C21.703,76.660 21.824,77.012 21.940,77.340 C22.268,78.324 22.658,79.247 23.071,80.194 C23.193,80.492 23.369,80.819 23.491,81.117 C23.698,81.560 23.880,82.010 24.118,82.453 L11.045,95.503 C10.777,95.771 10.595,96.159 10.595,96.541 C10.595,96.930 10.747,97.319 11.045,97.586 L27.895,114.407 C28.461,114.972 29.447,114.972 30.012,114.407 L43.086,101.357 C43.530,101.600 43.980,101.776 44.424,101.983 C44.722,102.135 45.050,102.280 45.348,102.402 C46.273,102.815 47.222,103.173 48.207,103.531 C48.566,103.647 48.889,103.768 49.248,103.884 L49.248,122.375 C49.248,123.207 49.904,123.863 50.738,123.863 L62.649,123.863 C63.482,123.863 64.139,123.207 64.139,122.375 L64.139,104.539 C64.139,103.707 63.482,103.052 62.649,103.052 C61.816,103.052 61.128,103.707 61.128,104.539 L61.128,120.887 L52.198,120.887 L52.198,102.784 C52.198,102.135 51.687,101.539 51.036,101.333 C50.409,101.151 49.752,100.944 49.132,100.738 C47.192,100.052 45.348,99.250 43.468,98.236 C43.201,98.090 42.903,98.060 42.635,98.090 L42.489,98.090 C42.222,98.151 41.984,98.266 41.771,98.448 C41.747,98.448 41.747,98.448 41.717,98.479 L28.911,111.256 L14.172,96.541 L26.977,83.765 C26.977,83.765 26.977,83.735 27.007,83.704 C27.184,83.498 27.305,83.255 27.360,82.987 C27.360,82.933 27.360,82.903 27.390,82.842 C27.421,82.574 27.390,82.277 27.245,82.010 C26.228,80.164 25.425,78.293 24.745,76.362 C24.531,75.737 24.324,75.081 24.118,74.370 C23.935,73.745 23.339,73.326 22.688,73.326 L22.658,73.326 L4.554,73.326 L4.554,52.521 L22.688,52.521 C23.339,52.521 23.935,52.017 24.148,51.361 C24.324,50.736 24.531,50.086 24.745,49.460 C25.425,47.529 26.228,45.683 27.245,43.813 C27.390,43.545 27.421,43.278 27.390,42.981 C27.390,42.920 27.390,42.890 27.360,42.829 C27.305,42.562 27.184,42.325 27.007,42.119 C27.007,42.088 27.007,42.088 26.977,42.058 L14.172,29.275 L28.911,14.561 L41.717,27.344 C41.747,27.374 41.802,27.374 41.863,27.405 C42.015,27.520 42.191,27.611 42.367,27.671 C42.459,27.702 42.550,27.732 42.635,27.732 C42.665,27.732 42.727,27.757 42.757,27.757 C42.994,27.757 43.232,27.702 43.468,27.581 C45.318,26.572 47.192,25.771 49.132,25.085 C49.752,24.878 50.409,24.666 51.121,24.459 C51.778,24.283 52.198,23.688 52.198,23.032 L52.198,4.960 L61.128,4.960 L61.128,21.308 C61.128,22.139 61.785,22.795 62.619,22.795 C63.452,22.795 64.109,22.139 64.109,21.308 L64.109,3.472 C64.109,2.640 63.452,1.990 62.619,1.990 L50.707,1.990 C49.874,1.990 49.217,2.640 49.217,3.472 L49.217,21.963 C48.858,22.085 48.505,22.200 48.177,22.322 C47.192,22.650 46.273,23.032 45.318,23.451 C45.020,23.567 44.691,23.748 44.393,23.864 C43.949,24.071 43.499,24.253 43.055,24.489 L29.982,11.439 C29.714,11.172 29.325,10.996 28.942,10.996 C28.553,10.996 28.163,11.142 27.895,11.439 L11.045,28.267 C10.777,28.534 10.595,28.916 10.595,29.305 C10.595,29.694 10.747,30.076 11.045,30.343 L24.118,43.394 C23.880,43.843 23.698,44.286 23.491,44.736 C23.339,45.027 23.193,45.355 23.071,45.653 C22.658,46.576 22.299,47.529 21.940,48.507 C21.824,48.865 21.703,49.193 21.587,49.546 L3.064,49.546 C2.230,49.546 1.573,50.201 1.573,51.033 L1.573,74.814 C1.573,75.646 2.230,76.301 3.064,76.301 Z"/>
<path fill-rule="evenodd"  stroke="rgb(255, 255, 255)" stroke-width="1.092px" stroke-linecap="butt" stroke-linejoin="miter" fill="none"
 d="M3.064,76.301 L21.587,76.301 C21.703,76.660 21.824,77.012 21.940,77.340 C22.268,78.324 22.658,79.247 23.071,80.194 C23.193,80.492 23.369,80.819 23.491,81.117 C23.698,81.560 23.880,82.010 24.118,82.453 L11.045,95.503 C10.777,95.771 10.595,96.159 10.595,96.541 C10.595,96.930 10.747,97.319 11.045,97.586 L27.895,114.407 C28.461,114.972 29.447,114.972 30.012,114.407 L43.086,101.357 C43.530,101.600 43.980,101.776 44.424,101.983 C44.722,102.135 45.050,102.280 45.348,102.402 C46.273,102.815 47.222,103.173 48.207,103.531 C48.566,103.647 48.889,103.768 49.248,103.884 L49.248,122.375 C49.248,123.207 49.904,123.863 50.738,123.863 L62.649,123.863 C63.482,123.863 64.139,123.207 64.139,122.375 L64.139,104.539 C64.139,103.707 63.482,103.052 62.649,103.052 C61.816,103.052 61.128,103.707 61.128,104.539 L61.128,120.887 L52.198,120.887 L52.198,102.784 C52.198,102.135 51.687,101.539 51.036,101.333 C50.409,101.151 49.752,100.944 49.132,100.738 C47.192,100.052 45.348,99.250 43.468,98.236 C43.201,98.090 42.903,98.060 42.635,98.090 L42.489,98.090 C42.222,98.151 41.984,98.266 41.771,98.448 C41.747,98.448 41.747,98.448 41.717,98.479 L28.911,111.256 L14.172,96.541 L26.977,83.765 C26.977,83.765 26.977,83.735 27.007,83.704 C27.184,83.498 27.305,83.255 27.360,82.987 C27.360,82.933 27.360,82.903 27.390,82.842 C27.421,82.574 27.390,82.277 27.245,82.010 C26.228,80.164 25.425,78.293 24.745,76.362 C24.531,75.737 24.324,75.081 24.118,74.370 C23.935,73.745 23.339,73.326 22.688,73.326 L22.658,73.326 L4.554,73.326 L4.554,52.521 L22.688,52.521 C23.339,52.521 23.935,52.017 24.148,51.361 C24.324,50.736 24.531,50.086 24.745,49.460 C25.425,47.529 26.228,45.683 27.245,43.813 C27.390,43.545 27.421,43.278 27.390,42.981 C27.390,42.920 27.390,42.890 27.360,42.829 C27.305,42.562 27.184,42.325 27.007,42.119 C27.007,42.088 27.007,42.088 26.977,42.058 L14.172,29.275 L28.911,14.561 L41.717,27.344 C41.747,27.374 41.802,27.374 41.863,27.405 C42.015,27.520 42.191,27.611 42.367,27.671 C42.459,27.702 42.550,27.732 42.635,27.732 C42.665,27.732 42.727,27.757 42.757,27.757 C42.994,27.757 43.232,27.702 43.468,27.581 C45.318,26.572 47.192,25.771 49.132,25.085 C49.752,24.878 50.409,24.666 51.121,24.459 C51.778,24.283 52.198,23.688 52.198,23.032 L52.198,4.960 L61.128,4.960 L61.128,21.308 C61.128,22.139 61.785,22.795 62.619,22.795 C63.452,22.795 64.109,22.139 64.109,21.308 L64.109,3.472 C64.109,2.640 63.452,1.990 62.619,1.990 L50.707,1.990 C49.874,1.990 49.217,2.640 49.217,3.472 L49.217,21.963 C48.858,22.085 48.505,22.200 48.177,22.322 C47.192,22.650 46.273,23.032 45.318,23.451 C45.020,23.567 44.691,23.748 44.393,23.864 C43.949,24.071 43.499,24.253 43.055,24.489 L29.982,11.439 C29.714,11.172 29.325,10.996 28.942,10.996 C28.553,10.996 28.163,11.142 27.895,11.439 L11.045,28.267 C10.777,28.534 10.595,28.916 10.595,29.305 C10.595,29.694 10.747,30.076 11.045,30.343 L24.118,43.394 C23.880,43.843 23.698,44.286 23.491,44.736 C23.339,45.027 23.193,45.355 23.071,45.653 C22.658,46.576 22.299,47.529 21.940,48.507 C21.824,48.865 21.703,49.193 21.587,49.546 L3.064,49.546 C2.230,49.546 1.573,50.201 1.573,51.033 L1.573,74.814 C1.573,75.646 2.230,76.301 3.064,76.301 Z"/>
<path fill-rule="evenodd"  fill="rgb(255, 255, 255)"
 d="M78.675,24.416 L78.675,39.287 L64.099,39.287 L64.099,33.834 C64.099,32.814 63.296,32.012 62.280,32.012 C45.193,32.012 31.317,45.870 31.317,62.922 C31.317,79.980 45.193,93.838 62.280,93.838 C63.296,93.838 64.099,93.037 64.099,92.016 L64.099,86.563 L78.675,86.563 L78.675,101.508 C77.580,101.909 76.631,102.528 75.974,103.506 C75.177,104.708 74.848,106.166 75.140,107.581 C75.432,109.002 76.229,110.234 77.434,111.072 C78.346,111.692 79.399,112.020 80.493,112.020 C80.859,112.020 81.187,111.983 81.552,111.910 C82.970,111.619 84.210,110.817 85.050,109.615 C85.884,108.419 86.175,106.961 85.884,105.546 C85.518,103.579 84.101,102.091 82.349,101.471 L82.349,84.741 C82.349,83.727 81.552,82.926 80.530,82.926 L64.099,82.926 L64.099,75.651 L93.646,75.651 C94.412,77.800 96.414,79.288 98.707,79.288 C99.035,79.288 99.401,79.252 99.765,79.179 C101.183,78.887 102.424,78.092 103.263,76.889 C104.097,75.687 104.389,74.236 104.097,72.815 C103.811,71.400 103.008,70.161 101.803,69.323 C100.605,68.527 99.145,68.199 97.722,68.491 C96.304,68.782 95.063,69.578 94.230,70.781 C93.974,71.181 93.792,71.582 93.609,72.019 L64.099,72.019 L64.099,64.744 L115.503,64.744 C116.269,66.888 118.271,68.382 120.564,68.382 C120.893,68.382 121.257,68.345 121.623,68.272 C123.040,67.981 124.281,67.179 125.120,65.977 C125.954,64.780 126.246,63.323 125.954,61.908 C125.668,60.487 124.865,59.255 123.660,58.417 C122.462,57.615 121.002,57.287 119.585,57.578 C118.161,57.870 116.920,58.672 116.087,59.868 C115.831,60.269 115.649,60.669 115.466,61.107 L64.099,61.107 L64.099,53.832 L93.646,53.832 C94.412,55.981 96.414,57.469 98.707,57.469 C99.035,57.469 99.401,57.433 99.765,57.360 C102.716,56.777 104.644,53.904 104.097,50.959 C103.519,48.014 100.641,46.089 97.691,46.636 C95.720,46.1000 94.230,48.415 93.609,50.164 L64.099,50.164 L64.099,42.889 L80.493,42.889 C81.516,42.889 82.313,42.087 82.313,41.067 L82.313,24.379 C84.429,23.614 85.957,21.616 85.957,19.248 C85.957,16.230 83.517,13.795 80.493,13.795 C77.470,13.795 75.031,16.266 75.031,19.284 C75.031,21.653 76.558,23.650 78.675,24.416 M60.455,90.128 C46.251,89.181 34.960,77.327 34.960,62.922 C34.960,48.524 46.251,36.634 60.455,35.723 L60.455,90.128 ZM78.997,105.546 C79.253,105.146 79.690,104.854 80.165,104.781 C80.275,104.745 80.384,104.745 80.530,104.745 C81.369,104.745 82.130,105.364 82.313,106.202 C82.422,106.670 82.313,107.144 82.026,107.581 C81.771,107.981 81.333,108.273 80.859,108.346 C80.384,108.419 79.910,108.346 79.472,108.055 C79.070,107.799 78.784,107.362 78.711,106.888 C78.602,106.421 78.711,105.947 78.997,105.546 M97.217,72.815 C97.472,72.414 97.904,72.129 98.378,72.055 C98.488,72.019 98.598,72.019 98.743,72.019 C99.108,72.019 99.437,72.129 99.765,72.341 C100.167,72.596 100.459,73.033 100.532,73.507 C100.641,73.981 100.532,74.454 100.240,74.892 C99.984,75.287 99.546,75.578 99.072,75.651 C98.086,75.833 97.144,75.219 96.924,74.199 C96.815,73.689 96.924,73.216 97.217,72.815 M119.073,61.908 C119.329,61.507 119.761,61.216 120.235,61.143 C120.345,61.107 120.454,61.107 120.600,61.107 C120.965,61.107 121.294,61.216 121.623,61.435 C122.024,61.690 122.316,62.127 122.389,62.600 C122.499,63.068 122.389,63.542 122.097,63.979 C121.841,64.380 121.404,64.671 120.929,64.744 C119.944,64.926 119.000,64.270 118.782,63.287 C118.672,62.777 118.782,62.309 119.073,61.908 ZM98.342,50.237 C98.451,50.200 98.561,50.200 98.707,50.200 C99.546,50.200 100.313,50.813 100.495,51.652 C100.678,52.635 100.021,53.577 99.035,53.795 C98.050,53.977 97.107,53.364 96.888,52.344 C96.742,51.360 97.363,50.413 98.342,50.237 M80.493,17.468 C81.516,17.468 82.313,18.270 82.313,19.284 C82.313,20.304 81.516,21.106 80.493,21.106 C79.472,21.106 78.675,20.304 78.675,19.284 C78.675,18.270 79.472,17.468 80.493,17.468 "/>
</svg>
