<svg 
 xmlns="http://www.w3.org/2000/svg"
 xmlns:xlink="http://www.w3.org/1999/xlink"
 width="102px" height="113px">
<path fill-rule="evenodd"  fill="rgb(255, 255, 255)"
 d="M99.093,17.314 C82.719,17.314 61.177,11.800 53.500,1.585 C52.480,0.344 50.641,0.164 49.398,1.181 C49.254,1.302 49.115,1.440 49.001,1.585 C41.317,11.800 19.781,17.314 3.408,17.314 C1.852,17.314 0.591,18.572 0.591,20.125 L0.591,56.640 C0.591,87.527 27.464,106.152 50.478,112.713 C50.979,112.857 51.516,112.857 52.022,112.713 C75.036,106.152 101.903,87.527 101.903,56.640 L101.903,20.125 C101.903,18.572 100.642,17.314 99.093,17.314 M96.276,56.640 C96.276,84.060 72.201,100.872 51.250,107.084 C30.299,100.872 6.224,84.060 6.224,56.640 L6.224,22.882 C22.489,22.334 41.721,17.103 51.250,7.538 C60.773,17.103 80.011,22.334 96.276,22.882 L96.276,56.640 Z"/>
<path fill-rule="evenodd"  fill="rgb(255, 255, 255)"
 d="M37.495,42.913 L37.495,49.775 L34.057,49.775 C32.157,49.775 30.619,51.317 30.619,53.207 L30.619,80.662 C30.619,82.558 32.157,84.099 34.057,84.099 L68.439,84.099 C70.338,84.099 71.882,82.558 71.882,80.662 L71.882,53.207 C71.882,51.317 70.338,49.775 68.439,49.775 L65.001,49.775 L65.001,42.913 C65.001,35.328 58.844,29.188 51.250,29.188 C43.652,29.188 37.495,35.328 37.495,42.913 M65.001,77.231 L37.495,77.231 L37.495,56.638 L65.001,56.638 L65.001,77.231 ZM58.126,42.913 L58.126,49.775 L44.375,49.775 L44.375,42.913 C44.375,39.121 47.452,36.051 51.250,36.051 C55.044,36.051 58.126,39.121 58.126,42.913 "/>
</svg>
