<?xml version="1.0" encoding="UTF-8"?>
<svg id="Layer_2" data-name="Layer 2" xmlns="http://www.w3.org/2000/svg" viewBox="0 0 2103 1252">
  <defs>
    <style>
      .cls-1 {
        fill: #444;
      }
    </style>
  </defs>
  <g id="Layer_1-2" data-name="Layer 1">
    <g>
      <polygon class="cls-1" points="117 0 545 1252 428 1252 117 342.25 0 0 117 0"/>
      <polygon class="cls-1" points="1986 909.75 1675 0 1558 0 1986 1252 2103 1252 1986 909.75"/>
      <polygon class="cls-1" points="1324 0 1130 567.5 1013 567.5 1207 0 1090 0 888.06 590.75 614 684.5 856.01 684.5 720.5 1080.88 351 0 234 0 662 1252 779 1252 973.01 684.5 1090 684.5 896 1252 1013 1252 1214.95 661.25 1489 567.5 1247 567.5 1382.5 171.13 1752 1252 1869 1252 1441 0 1324 0"/>
    </g>
  </g>
</svg>