<?xml version="1.0" encoding="UTF-8"?><svg id="a" xmlns="http://www.w3.org/2000/svg" viewBox="0 0 281.80552 96.44747"><defs><style>.b{fill:#fff;}.c{fill:#dadada;}</style></defs><path class="b" d="m261.94323,76.02919v-13.20776h10.87272v13.20776h8.9853v-33.46065h-8.9853v12.40945h-10.87272v-12.40945h-8.98245v33.46065m-1.4626-33.46065h-26.21029v7.54547h8.53766v25.91518h8.98528v-25.91518h8.68736v-7.54547Zm-74.56946-.54598c-10.27543,0-16.63198,7.74503-16.63198,17.47591,0,9.28322,5.71221,17.07675,16.08742,17.07675h.04705c10.27684,0,16.73176-6.85266,16.73176-17.62417,0-8.93683-5.46132-16.92849-16.23424-16.92849m-.0998,27.45337h-.09836c-4.31944,0-6.99947-4.17261-6.94959-10.1785,0-5.80629,2.63015-10.17563,6.94959-10.17563,4.36792,0,6.94959,4.36934,6.94959,10.12716,0,6.05435-2.5332,10.22696-6.85123,10.22696m38.01105-7.89329c0,5.31016-1.73775,7.89329-5.30877,7.89329-3.52683,0-5.26601-2.82975-5.26601-7.89329v-19.0141h-8.98243v18.26995c0,10.72161,4.864,15.73672,13.99896,15.73672,9.38302,0,14.54355-5.21615,14.54355-15.54143v-18.46524h-8.9853v19.0141Zm-69.79099,7.59394c-3.37428,0-6.6488-1.04354-8.68592-2.08561l-1.68785,7.40008c1.88886.99216,5.80914,2.03284,9.82922,2.03284,9.77932,0,14.24415-4.91532,14.24415-10.67314,0-4.6673-2.67862-7.84483-8.68449-10.0787-4.21966-1.58665-6.00587-2.23526-6.00587-3.92028,0-1.48829,1.48685-2.48189,4.21964-2.48189,3.32584,0,5.80629.9437,7.24612,1.58948l1.88601-7.19905c-2.18395-.94231-5.06215-1.68785-9.03518-1.68785-8.43788,0-13.45013,4.56746-13.45013,10.47355,0,4.96522,3.77202,8.04299,9.43148,10.0787,3.77345,1.29013,5.26031,2.18536,5.26031,3.82335,0,1.68497-1.48685,2.72852-4.5675,2.72852m-3.88463,12.91124l-4.80129,14.13015h1.88744l1.46547-4.4449h5.00942l1.50539,4.4449h1.94731l-4.81695-14.13015h-2.19678Zm-1.0706,8.25827l1.38138-4.08566c.27369-.85961.50322-1.74057.6914-2.55741h.06556c.20671.81684.41627,1.65504.71136,2.57595l1.40417,4.06713h-4.25387Zm23.99498.12829c0,3.10059-1.36282,4.48623-3.43845,4.48623-1.88601,0-3.28875-1.34003-3.28875-4.48623v-8.38657h-1.84468v8.32386c0,4.40068,2.17825,6.0358,5.07072,6.0358,3.05924,0,5.3444-1.762,5.3444-6.10138v-8.25827h-1.84324v8.38657Zm15.15224-2.26522c-1.95016-.75411-2.80976-1.40415-2.80976-2.70285,0-.96654.73416-2.11693,2.66293-2.11693,1.27588,0,2.2196.39628,2.66152.67001l.50322-1.51113c-.60728-.33355-1.67788-.66997-3.102-.66997-2.74564,0-4.56891,1.63507-4.56891,3.83614,0,1.97156,1.42697,3.18612,3.72925,3.98445,1.90883.71278,2.66152,1.48827,2.66152,2.80691,0,1.42556-1.08914,2.39066-2.95518,2.39066-1.25593,0-2.42916-.39774-3.24742-.90237l-.48042,1.51109c.75126.50178,2.24096.9209,3.60381.9209,3.3301,0,4.92245-1.90739,4.92245-4.06711,0-2.07562-1.1932-3.2075-3.58101-4.14981m35.22837,1.27873v-.06271c1.46832-.50465,2.66152-1.73918,2.66152-3.58384,0-1.11337-.42054-2.07421-1.11052-2.68436-.88099-.79687-2.15972-1.17462-4.10987-1.17462-1.23311,0-2.57314.12399-3.4969.31645v13.91915h1.82471v-6.12135h1.7178c1.65507.0613,2.42773.79831,2.84826,2.74562.37777,1.76056.69281,2.9552.9209,3.37574h1.88601c-.27086-.546-.60587-1.91168-1.06773-3.88037-.35639-1.46547-1.00502-2.47193-2.07419-2.8497m-2.36928-.77549h-1.86178v-5.13486c.31362-.08553.9209-.16962,1.80048-.16962,1.92877,0,3.24742.79544,3.24742,2.62015,0,1.61374-1.23738,2.68434-3.18612,2.68434m17.43884-6.62459l-4.79986,14.13015h1.88744l1.46404-4.4449h5.00942l1.50824,4.4449h1.95016l-4.81837-14.13015h-2.20107Zm-1.06773,8.25827l1.37992-4.08566c.27229-.85961.50465-1.74057.69283-2.55741h.06271c.20956.81684.41627,1.65648.70993,2.57595l1.40561,4.06713h-4.251Zm17.89642-8.25827h-1.84609v14.13015h7.87906v-1.53249h-6.03297v-12.59765Zm-56.31376,1.55246h4.29662v12.57769h1.84468v-12.57769h4.31515v-1.55246h-10.45645v1.55246Zm86.93048-1.55246h-2.19963l-4.79846,14.13015h1.88605l1.46689-4.4449h5.00798l1.50822,4.4449h1.95018l-4.82122-14.13015Zm-3.2688,8.25827l1.38275-4.08566c.27373-.85961.50182-1.74057.69142-2.55741h.06417c.20952.81684.41908,1.65648.71278,2.57595l1.40272,4.06713h-4.25383Zm-13.59983,5.87187h1.84183v-14.1301h-1.84183v14.1301Z"/><polyline class="b" points="129.5931 47.02767 57.67517 2.08987 0 38.13078 17.15657 90.93057 45.97706 72.92436 45.97706 72.9258 45.97706 42.56854 83.61745 42.56854 83.61745 87.37237 106.65587 96.21796"/><polyline class="b" points="80.65944 45.52516 48.93224 45.52516 48.93224 74.06057 50.81968 74.78331 50.81968 49.7548 73.89517 49.7548 73.89517 83.64027 80.66229 86.23767"/><polyline class="b" points="53.77771 52.7128 53.77771 56.94245 65.43733 56.94245 65.43733 80.39427 70.93428 82.50411 70.93428 52.7128"/><polyline class="c" points="106.65589 0 93.43528 24.43263 129.5931 47.02628"/></svg>