<?xml version="1.0" encoding="UTF-8"?>
<svg id="Layer_2" data-name="Layer 2" xmlns="http://www.w3.org/2000/svg" viewBox="0 0 1184.13 339.39">
  <defs>
    <style>
      .cls-1 {
        fill: #fff;
      }
    </style>
  </defs>
  <g id="Object">
    <rect id="line" class="cls-1" x="425.04" y="13.19" width="10.7" height="313"/>
    <g id="logo">
      <path class="cls-1" d="M224.13,199.51c-13.19,19.03-32.03,40.57-54.79,58.38-39.71-29.41-88.85-92.52-98.84-171.21,8.68-3.48,17.59-6.51,26.71-9.07,2-.56,4.01-1.11,6.04-1.61,11.21,75.49,45.11,114.34,66.09,136.46,1.64-1.64,10.46-12.44,18.45-22.48,3.26.39,6.51.92,9.74,1.56,9.1,1.75,18,4.45,26.6,7.99Z"/>
      <path class="cls-1" d="M268.18,86.68c-2.62,18.23-6.62,33.75-11.38,47.61-10.41-4.56-21.15-8.32-32.14-11.21,4.62-14,9.21-31.67,10.77-47.08,2.03.5,4.03,1.06,6.04,1.61h.03c9.13,2.56,18,5.59,26.68,9.07Z"/>
      <path class="cls-1" d="M330.55,122.04c-8.43-6.46-30.05-19.9-30.5-20.2,2.14-11.88,3.53-23.93,4.2-36.15-10.8-5.43-62.88-31.83-134.26-31.83h-1.34c-65.72,0-123.88,26.63-134.26,31.83,10.48,127.22,82.23,199.32,134.93,233.99,40.51-26.32,74.14-65.05,94.91-100.26-9.21-6.54-19.14-12.13-29.61-16.64-10.6-4.62-21.79-8.13-33.39-10.38-8.04-1.59-16.28-2.59-24.65-2.95-2.53-3.26-4.95-6.62-7.26-10.05-5.06-7.49-9.6-15.33-13.61-23.51,61.27-4.44,115.28,20.19,151.23,55.01-34.5,73.17-83.43,116.73-137.63,148.48C47.76,275.1,6.37,149.54,1.32,77.91.63,68.19-.25,55.44.06,45.91,39.93,22.2,97.06,0,169.33,0s126.01,20.3,169.27,45.91c.03,17.25-.98,45.09-8.04,76.13Z"/>
    </g>
    <g>
      <path class="cls-1" d="M567.1,159.58c-.27.82-1.22,1.5-2.18,1.5h-18.36c-.95,0-1.9-.68-2.18-1.5l-31.14-92.21c-.27-.68.27-1.5,1.09-1.5h15.23c.95,0,1.77.68,2.18,1.5l25.02,81.87,24.62-81.87c.27-.82,1.09-1.5,2.04-1.5h13.19c.82,0,1.36.82,1.09,1.5l-30.6,92.21Z"/>
      <path class="cls-1" d="M608.72,161.07c-.82,0-1.63-.82-1.63-1.63l1.09-46.38-1.09-45.56c0-.82.82-1.63,1.63-1.63h14.14c.82,0,1.63.82,1.63,1.63l-1.09,45.56,1.09,46.38c0,.82-.82,1.63-1.63,1.63h-14.14Z"/>
      <path class="cls-1" d="M663.39,161.07c-.82,0-1.63-.82-1.63-1.63l1.22-45.83-1.09-34.68h-25.7c-.82,0-1.63-.82-1.63-1.63v-9.79c0-.82.82-1.63,1.63-1.63h68.95c.82,0,1.63.82,1.63,1.63v9.79c0,.82-.82,1.63-1.63,1.63h-25.7l-.95,34.68,1.22,45.83c0,.82-.82,1.63-1.63,1.63h-14.69Z"/>
      <path class="cls-1" d="M770.7,161.07c-.95,0-1.9-.68-2.18-1.5l-8.16-24.62h-37.54l-7.89,24.62c-.27.82-1.22,1.5-2.18,1.5h-13.6c-.82,0-1.36-.82-1.09-1.5l32.5-92.21c.27-.82,1.22-1.5,2.18-1.5h18.9c.95,0,1.9.68,2.18,1.5l31.96,92.21c.27.68-.27,1.5-1.09,1.5h-14.01ZM755.87,121.09l-14.42-43.52-14.14,43.52h28.56Z"/>
      <path class="cls-1" d="M796.13,161.07c-.82,0-1.63-.82-1.63-1.63l1.09-46.92-1.09-45.02c0-.82.82-1.63,1.63-1.63h14.14c.82,0,1.63.82,1.63,1.63l-.82,44.06.82,36.45h39.85c.82,0,1.63.82,1.63,1.63v9.79c0,.82-.82,1.63-1.63,1.63h-55.62Z"/>
      <path class="cls-1" d="M561.94,285.97c-26.52,0-45.15-19.86-45.15-49.5s17.95-49.5,45.02-49.5c22.3,0,36.86,11.29,41.75,30.87.27.82-.41,1.63-1.22,1.63h-13.87c-.95,0-1.77-.68-2.04-1.63-3.26-11.56-11.83-17.54-24.62-17.54-17.41,0-27.88,13.74-27.88,36.45s11.02,35.9,28.7,35.9c15.91,0,25.16-9.93,25.43-26.52h-25.7c-.82,0-1.63-.82-1.63-1.63v-9.38c0-.82.82-1.63,1.63-1.63h41.89c.82,0,1.63.82,1.63,1.63.14,33.73-15.78,50.86-43.93,50.86Z"/>
      <path class="cls-1" d="M654.28,285.97c-24.48,0-37.13-13.46-36.99-37.54l.27-27.61-.82-30.33c0-.82.82-1.63,1.63-1.63h14.55c.82,0,1.63.82,1.63,1.63l-.68,29.92.14,27.88c0,14.82,5.98,23.8,20.26,23.8s21.22-8.98,21.22-23.8v-27.47l-.54-30.33c0-.82.82-1.63,1.63-1.63h13.06c.82,0,1.63.82,1.63,1.63l-.54,30.33v27.61c0,24.07-12.1,37.54-36.45,37.54Z"/>
      <path class="cls-1" d="M767.02,284.07c-.95,0-1.9-.68-2.18-1.5l-8.16-24.62h-37.54l-7.89,24.62c-.27.82-1.22,1.5-2.18,1.5h-13.6c-.82,0-1.36-.82-1.09-1.5l32.5-92.21c.27-.82,1.22-1.5,2.18-1.5h18.9c.95,0,1.9.68,2.18,1.5l31.96,92.21c.27.68-.27,1.5-1.09,1.5h-14.01ZM752.2,244.09l-14.42-43.52-14.14,43.52h28.56Z"/>
      <path class="cls-1" d="M836.65,265.03l-11.83-17.82h-17.27l.68,35.22c0,.82-.82,1.63-1.63,1.63h-14.14c-.82,0-1.63-.82-1.63-1.63l.95-46.51-.95-45.42c0-.82.82-1.63,1.63-1.63h35.77c22.71,0,36.31,9.79,36.31,29.1,0,14.55-8.3,23.94-22.03,27.61l23.94,37.13c.27.54-.14,1.36-.82,1.36h-16.18c-.95,0-1.9-.54-2.45-1.36l-10.34-17.68ZM829.17,201.65h-21.22l-.54,32.64h22.17c10.61,0,18.77-4.62,18.77-16.05s-7.07-16.59-19.18-16.59Z"/>
      <path class="cls-1" d="M879.22,284.07c-.82,0-1.63-.82-1.63-1.63l1.09-46.51-1.09-45.42c0-.82.82-1.63,1.63-1.63h31.69c27.34,0,49.37,15.5,49.37,48.01s-22.98,47.19-49.1,47.19h-31.96ZM895.13,271.01h17.14c16.05,0,30.74-9.93,30.74-34.27s-13.87-34.82-31.28-34.82h-16.59c0,.14-.95,21.08-.95,33.59s.95,35.36.95,35.5Z"/>
      <path class="cls-1" d="M974.69,284.07c-.82,0-1.63-.82-1.63-1.63l1.09-46.38-1.09-45.56c0-.82.82-1.63,1.63-1.63h14.14c.82,0,1.63.82,1.63,1.63l-1.09,45.56,1.09,46.38c0,.82-.82,1.63-1.63,1.63h-14.14Z"/>
      <path class="cls-1" d="M1072.48,284.07c-.95,0-1.9-.68-2.18-1.5l-8.16-24.62h-37.54l-7.89,24.62c-.27.82-1.22,1.5-2.18,1.5h-13.6c-.82,0-1.36-.82-1.09-1.5l32.5-92.21c.27-.82,1.22-1.5,2.18-1.5h18.9c.95,0,1.9.68,2.18,1.5l31.96,92.21c.27.68-.27,1.5-1.09,1.5h-14.01ZM1057.65,244.09l-14.42-43.52-14.14,43.52h28.56Z"/>
      <path class="cls-1" d="M1112.19,248.71l.14,33.73c0,.82-.82,1.63-1.63,1.63h-12.78c-.82,0-1.63-.82-1.63-1.63l.95-46.24-.82-45.7c0-.82.82-1.63,1.63-1.63h16.86c.95,0,1.9.54,2.45,1.36l43.79,72.62-.14-5.71-.54-29.92v-36.72c0-.82.82-1.63,1.63-1.63h12.65c.82,0,1.63.82,1.63,1.63l-.82,45.7.82,46.24c0,.82-.82,1.63-1.63,1.63h-17.68c-.95,0-1.9-.54-2.45-1.36l-43.11-71.54.27,8.7.41,28.83Z"/>
    </g>
  </g>
</svg>