<svg 
 xmlns="http://www.w3.org/2000/svg"
 xmlns:xlink="http://www.w3.org/1999/xlink"
 width="111px" height="115px">
<path fill-rule="evenodd"  fill="rgb(255, 255, 255)"
 d="M55.247,22.334 C35.902,22.334 20.165,38.044 20.165,57.355 C20.165,76.666 35.902,92.376 55.247,92.376 C74.585,92.376 90.323,76.666 90.323,57.355 C90.323,38.044 74.585,22.334 55.247,22.334 M55.247,85.216 C39.832,85.216 27.337,72.743 27.337,57.355 C27.337,41.973 39.832,29.500 55.247,29.500 C70.656,29.500 83.151,41.973 83.151,57.355 C83.132,72.737 70.649,85.198 55.247,85.216 M109.844,69.749 L106.176,57.835 C106.060,57.525 106.060,57.185 106.176,56.875 L109.844,44.967 C110.963,41.421 109.710,37.552 106.711,35.342 L96.728,27.860 C96.454,27.678 96.254,27.399 96.163,27.083 L92.123,15.296 C90.943,11.768 87.646,9.375 83.923,9.345 L71.440,9.150 C71.112,9.163 70.783,9.059 70.522,8.853 L60.314,1.687 C57.278,-0.475 53.209,-0.475 50.173,1.687 L39.965,8.853 C39.704,9.059 39.376,9.163 39.047,9.150 L26.564,9.345 C22.841,9.375 19.550,11.768 18.364,15.296 L14.324,27.083 C14.233,27.399 14.033,27.678 13.759,27.860 L3.776,35.342 C0.777,37.552 -0.476,41.421 0.643,44.967 L4.311,56.875 C4.427,57.185 4.427,57.525 4.311,57.835 L0.643,69.749 C-0.476,73.290 0.777,77.158 3.776,79.368 L13.759,86.850 C14.033,87.038 14.233,87.311 14.324,87.627 L18.364,99.420 C19.550,102.942 22.841,105.335 26.564,105.366 L39.047,105.560 C39.376,105.548 39.704,105.657 39.965,105.857 L50.173,113.023 C53.209,115.185 57.278,115.185 60.314,113.023 L70.522,105.857 C70.783,105.657 71.112,105.548 71.440,105.560 L83.923,105.366 C87.646,105.335 90.943,102.942 92.123,99.420 L96.163,87.627 C96.254,87.311 96.454,87.038 96.728,86.850 L106.711,79.368 C109.710,77.158 110.963,73.296 109.844,69.749 M102.410,73.642 L92.421,81.124 C90.998,82.168 89.933,83.631 89.380,85.308 L85.335,97.101 C85.134,97.769 84.507,98.218 83.813,98.206 L71.331,98.400 C69.561,98.412 67.839,98.971 66.397,99.997 L56.184,107.163 C55.630,107.588 54.857,107.588 54.304,107.163 L44.090,99.997 C42.648,98.971 40.927,98.412 39.157,98.400 L26.680,98.206 C25.980,98.218 25.359,97.769 25.153,97.101 L21.114,85.308 C20.554,83.631 19.489,82.168 18.066,81.124 L8.077,73.642 C7.505,73.241 7.268,72.512 7.499,71.851 L11.167,59.942 C11.703,58.260 11.703,56.450 11.167,54.768 L7.499,42.860 C7.268,42.198 7.505,41.469 8.077,41.068 L18.066,33.587 C19.489,32.542 20.554,31.079 21.107,29.403 L25.153,17.609 C25.354,16.942 25.980,16.492 26.674,16.504 L39.157,16.310 C40.927,16.298 42.648,15.739 44.090,14.713 L54.304,7.547 C54.857,7.128 55.630,7.128 56.190,7.547 L66.397,14.713 C67.833,15.745 69.561,16.304 71.331,16.310 L83.807,16.504 C84.507,16.492 85.128,16.948 85.335,17.609 L89.374,29.403 C89.933,31.079 90.998,32.542 92.421,33.587 L102.410,41.068 C102.982,41.469 103.219,42.198 102.988,42.860 L99.320,54.768 C98.778,56.450 98.778,58.260 99.320,59.942 L102.988,71.851 C103.219,72.512 102.982,73.241 102.410,73.642 ZM74.701,44.693 C76.039,46.151 75.942,48.416 74.482,49.752 L52.089,70.235 C51.426,70.842 50.563,71.176 49.669,71.176 C49.601,71.176 49.528,71.176 49.462,71.170 C48.494,71.116 47.594,70.672 46.961,69.944 L35.725,57.033 C34.424,55.545 34.576,53.280 36.066,51.981 C37.556,50.681 39.826,50.833 41.127,52.321 C41.134,52.327 41.134,52.333 41.140,52.339 L49.960,62.474 L69.634,44.475 C71.093,43.139 73.363,43.236 74.701,44.693 "/>
</svg>
