<svg 
 xmlns="http://www.w3.org/2000/svg"
 xmlns:xlink="http://www.w3.org/1999/xlink"
 width="115px" height="115px">
<path fill-rule="evenodd"  fill="rgb(255, 255, 255)"
 d="M82.805,41.223 C82.805,18.593 64.422,0.249 41.750,0.249 C30.866,0.249 20.423,4.566 12.725,12.250 C-3.308,28.254 -3.302,54.199 12.731,70.203 C27.062,84.508 49.703,86.231 66.045,74.260 L72.665,80.874 L71.823,81.715 C71.060,82.476 71.060,83.710 71.823,84.478 L99.074,111.679 C102.447,115.041 107.917,115.041 111.297,111.679 L112.333,110.645 C115.706,107.272 115.706,101.812 112.333,98.438 L85.082,71.243 C84.307,70.505 83.089,70.505 82.314,71.243 L81.472,72.083 L74.852,65.475 C80.043,58.449 82.829,49.948 82.805,41.223 M15.493,67.440 C0.986,52.959 0.992,29.488 15.493,15.013 C29.993,0.539 53.507,0.539 68.007,15.013 C82.514,29.494 82.514,52.959 68.007,67.440 C61.048,74.387 51.605,78.292 41.756,78.292 C31.901,78.323 22.440,74.411 15.493,67.440 ZM109.565,101.201 C111.406,103.051 111.406,106.038 109.565,107.882 L108.529,108.916 C106.681,110.754 103.690,110.754 101.836,108.916 L75.972,83.099 L83.695,75.384 L109.565,101.201 ZM78.704,74.846 L77.777,75.771 L75.427,78.111 L69.092,71.781 C69.661,71.273 70.224,70.747 70.775,70.197 C71.320,69.652 71.847,69.090 72.362,68.516 L78.704,74.846 Z"/>
<path fill-rule="evenodd"  fill="rgb(255, 255, 255)"
 d="M64.692,18.324 C52.021,5.681 31.482,5.681 18.816,18.330 C6.145,30.978 6.151,51.481 18.816,64.129 C31.488,76.772 52.027,76.772 64.698,64.123 C70.780,58.047 74.196,49.812 74.196,41.227 C74.190,32.635 70.774,24.400 64.692,18.324 M61.924,61.366 C50.785,72.485 32.717,72.485 21.578,61.366 C10.434,50.248 10.434,32.212 21.578,21.093 C32.717,9.968 50.785,9.968 61.924,21.093 C67.273,26.432 70.277,33.675 70.283,41.227 C70.277,48.778 67.273,56.022 61.924,61.366 "/>
<path fill-rule="evenodd"  fill="rgb(255, 255, 255)"
 d="M50.374,29.594 C48.824,29.588 47.339,30.199 46.255,31.293 L38.721,38.815 L37.255,37.345 C34.977,35.078 31.289,35.072 29.011,37.345 C26.733,39.619 26.733,43.301 29.011,45.574 L34.602,51.155 C36.873,53.428 40.562,53.428 42.839,51.155 L54.493,39.522 C56.770,37.255 56.776,33.573 54.499,31.299 C53.409,30.205 51.925,29.588 50.374,29.588 L50.374,29.594 ZM51.725,36.759 L40.071,48.392 C39.314,49.111 38.121,49.111 37.370,48.392 L31.773,42.811 C31.028,42.062 31.028,40.852 31.779,40.109 C32.530,39.359 33.741,39.365 34.487,40.109 L37.340,42.956 C38.103,43.718 39.338,43.718 40.101,42.956 C40.108,42.956 40.108,42.956 40.108,42.956 L49.024,34.056 C49.781,33.337 50.974,33.337 51.731,34.056 C52.476,34.800 52.482,36.009 51.731,36.753 C51.731,36.759 51.731,36.759 51.731,36.759 L51.725,36.759 Z"/>
</svg>
