<svg 
 xmlns="http://www.w3.org/2000/svg"
 xmlns:xlink="http://www.w3.org/1999/xlink"
 width="106.124px" height="106.125px">
<path fill-rule="evenodd"  stroke="rgb(255, 255, 255)" stroke-width="4.083px" stroke-linecap="round" stroke-linejoin="round" fill="none"
 d="M15.002,4.672 C21.010,4.672 25.880,9.532 25.880,15.530 C25.880,21.528 18.860,32.308 15.002,32.308 C11.143,32.308 4.123,21.528 4.123,15.530 C4.123,9.532 8.993,4.672 15.002,4.672 Z"/>
<path fill-rule="evenodd"  fill="rgb(255, 255, 255)"
 d="M15.002,18.491 C16.637,18.491 17.970,17.161 17.970,15.528 C17.970,13.896 16.637,12.566 15.002,12.566 C13.366,12.566 12.034,13.896 12.034,15.528 C12.034,17.161 13.366,18.491 15.002,18.491 "/>
<path fill-rule="evenodd"  stroke="rgb(255, 255, 255)" stroke-width="4.083px" stroke-linecap="round" stroke-linejoin="round" fill="none"
 d="M14.804,32.311 L85.508,32.311 C93.176,32.311 99.451,38.575 99.451,46.229 C99.451,53.883 93.176,60.147 85.508,60.147 L68.997,60.147 "/>
<path fill-rule="evenodd"  stroke="rgb(255, 255, 255)" stroke-width="4.083px" stroke-linecap="round" stroke-linejoin="round" fill="none"
 d="M72.950,87.984 L18.067,87.984 C10.399,87.984 4.124,81.720 4.124,74.066 C4.124,66.411 10.399,60.147 18.067,60.147 L68.995,60.147 "/>
<path fill-rule="evenodd"  stroke="rgb(255, 255, 255)" stroke-width="4.083px" stroke-linecap="round" stroke-linejoin="round" fill="none"
 d="M87.586,99.138 C94.122,99.138 99.452,93.817 99.452,87.293 C99.452,80.769 94.122,75.449 87.586,75.449 C81.050,75.449 75.720,80.769 75.720,87.293 C75.720,93.817 81.050,99.138 87.586,99.138 Z"/>
<path fill-rule="evenodd"  fill="rgb(255, 255, 255)"
 d="M87.586,90.254 C89.222,90.254 90.554,88.924 90.554,87.292 C90.554,85.659 89.222,84.329 87.586,84.329 C85.950,84.329 84.618,85.659 84.618,87.292 C84.618,88.924 85.950,90.254 87.586,90.254 "/>
</svg>
