<svg 
 xmlns="http://www.w3.org/2000/svg"
 xmlns:xlink="http://www.w3.org/1999/xlink"
 width="113px" height="120px">
<path fill-rule="evenodd"  fill="rgb(255, 255, 255)"
 d="M14.539,60.832 C11.387,62.720 8.442,57.826 11.667,56.010 L92.633,8.819 L82.338,5.607 C78.834,4.490 80.446,-0.824 83.951,0.293 L100.129,5.327 C101.668,5.674 102.581,7.216 102.228,8.752 L98.237,25.252 C97.397,28.817 91.933,27.626 92.773,23.995 L95.225,13.787 L14.539,60.832 ZM2.839,119.481 C-0.873,119.481 -0.873,113.895 2.839,113.895 L7.530,113.895 L7.530,72.856 C7.530,71.319 8.795,70.062 10.334,70.062 L32.750,70.062 C34.289,70.062 35.549,71.319 35.549,72.856 L35.549,113.895 L42.272,113.895 L42.272,59.575 C42.272,58.038 43.531,56.775 45.077,56.775 L67.486,56.775 C69.031,56.775 70.291,58.038 70.291,59.575 L70.291,113.895 L77.087,113.895 L77.087,41.399 C77.087,39.863 78.347,38.600 79.886,38.600 L102.301,38.600 C103.840,38.600 105.100,39.863 105.100,41.399 L105.100,113.895 L109.791,113.895 C113.436,113.895 113.436,119.481 109.791,119.481 L2.839,119.481 ZM13.134,113.895 L29.945,113.895 L29.945,75.655 L13.134,75.655 L13.134,113.895 ZM47.876,113.895 L64.687,113.895 L64.687,62.374 L47.876,62.374 L47.876,113.895 ZM82.685,113.895 L99.496,113.895 L99.496,44.199 L82.685,44.199 L82.685,113.895 Z"/>
</svg>
