<svg 
 xmlns="http://www.w3.org/2000/svg"
 xmlns:xlink="http://www.w3.org/1999/xlink"
 width="106.124px" height="106.124px">
<path fill-rule="evenodd"  stroke="rgb(255, 255, 255)" stroke-width="4.083px" stroke-linecap="round" stroke-linejoin="round" fill="none"
 d="M15.139,4.966 C21.174,4.966 26.065,9.848 26.065,15.872 C26.065,21.896 19.014,32.724 15.139,32.724 C11.264,32.724 4.214,21.896 4.214,15.872 C4.214,9.848 9.104,4.966 15.139,4.966 Z"/>
<path fill-rule="evenodd"  fill="rgb(255, 255, 255)"
 d="M15.139,18.846 C16.782,18.846 18.120,17.510 18.120,15.870 C18.120,14.230 16.782,12.894 15.139,12.894 C13.497,12.894 12.158,14.230 12.158,15.870 C12.158,17.510 13.497,18.846 15.139,18.846 "/>
<path fill-rule="evenodd"  stroke="rgb(255, 255, 255)" stroke-width="4.083px" stroke-linecap="round" stroke-linejoin="round" fill="none"
 d="M14.940,32.726 L85.951,32.726 C93.652,32.726 99.954,39.017 99.954,46.705 C99.954,54.393 93.652,60.684 85.951,60.684 L69.368,60.684 "/>
<path fill-rule="evenodd"  stroke="rgb(255, 255, 255)" stroke-width="4.083px" stroke-linecap="round" stroke-linejoin="round" fill="none"
 d="M73.338,88.643 L18.218,88.643 C10.516,88.643 4.214,82.351 4.214,74.664 C4.214,66.976 10.516,60.684 18.218,60.684 L69.366,60.684 "/>
<path fill-rule="evenodd"  stroke="rgb(255, 255, 255)" stroke-width="4.083px" stroke-linecap="round" stroke-linejoin="round" fill="none"
 d="M88.038,99.846 C94.601,99.846 99.955,94.502 99.955,87.950 C99.955,81.398 94.601,76.054 88.038,76.054 C81.474,76.054 76.121,81.398 76.121,87.950 C76.121,94.502 81.474,99.846 88.038,99.846 Z"/>
<path fill-rule="evenodd"  fill="rgb(255, 255, 255)"
 d="M88.038,90.923 C89.680,90.923 91.018,89.587 91.018,87.947 C91.018,86.308 89.680,84.972 88.038,84.972 C86.395,84.972 85.057,86.308 85.057,87.947 C85.057,89.587 86.395,90.923 88.038,90.923 "/>
</svg>
