<svg 
 xmlns="http://www.w3.org/2000/svg"
 xmlns:xlink="http://www.w3.org/1999/xlink"
 width="121px" height="120px">
<path fill-rule="evenodd"  fill="rgb(255, 255, 255)"
 d="M116.340,48.501 L109.162,48.501 C109.047,48.501 108.943,48.428 108.919,48.319 C107.696,43.193 105.664,38.310 102.890,33.803 C102.830,33.706 102.841,33.579 102.921,33.500 L108.006,28.416 C108.718,27.712 109.101,26.776 109.101,25.780 C109.101,24.784 108.718,23.842 108.006,23.138 L97.099,12.248 C96.393,11.544 95.456,11.155 94.453,11.155 C93.455,11.155 92.518,11.544 91.813,12.248 L86.721,17.332 C86.642,17.411 86.514,17.423 86.417,17.356 C81.903,14.587 77.012,12.564 71.878,11.344 C71.775,11.319 71.695,11.216 71.695,11.094 L71.695,3.928 C71.695,1.869 70.016,0.193 67.954,0.193 L52.527,0.193 C50.465,0.193 48.792,1.869 48.792,3.928 L48.792,11.094 C48.792,11.216 48.713,11.319 48.609,11.344 C43.475,12.564 38.584,14.587 34.071,17.356 C33.967,17.423 33.845,17.411 33.766,17.332 L28.675,12.248 C27.969,11.544 27.026,11.155 26.028,11.155 C25.031,11.155 24.094,11.544 23.388,12.248 L12.475,23.138 C11.769,23.842 11.380,24.784 11.380,25.780 C11.380,26.776 11.769,27.712 12.475,28.416 L17.567,33.500 C17.645,33.579 17.658,33.706 17.597,33.803 C14.823,38.310 12.791,43.193 11.569,48.319 C11.544,48.428 11.441,48.501 11.325,48.501 L4.147,48.501 C2.085,48.501 0.406,50.177 0.406,52.237 L0.406,67.639 C0.406,69.698 2.085,71.374 4.147,71.374 L11.325,71.374 C11.441,71.374 11.544,71.447 11.569,71.550 C12.791,76.676 14.823,81.559 17.597,86.066 C17.658,86.169 17.645,86.290 17.567,86.369 L12.475,91.453 C11.769,92.157 11.380,93.099 11.380,94.095 C11.380,95.091 11.769,96.032 12.475,96.737 L23.388,107.627 C24.094,108.331 25.031,108.720 26.028,108.720 C27.032,108.720 27.969,108.331 28.675,107.627 L33.766,102.543 C33.845,102.464 33.967,102.452 34.071,102.513 C38.584,105.288 43.475,107.311 48.609,108.531 C48.713,108.556 48.792,108.659 48.792,108.774 L48.792,115.947 C48.792,118.000 50.465,119.677 52.527,119.677 L67.960,119.677 C70.016,119.677 71.695,118.000 71.695,115.947 L71.695,108.774 C71.695,108.659 71.775,108.556 71.878,108.531 C77.012,107.311 81.903,105.288 86.417,102.513 C86.514,102.452 86.642,102.464 86.721,102.543 L91.813,107.627 C92.518,108.331 93.455,108.720 94.453,108.720 C95.456,108.720 96.393,108.331 97.099,107.627 L99.672,105.057 C100.353,104.377 100.353,103.272 99.672,102.585 C98.991,101.905 97.884,101.905 97.202,102.585 L94.623,105.154 C94.568,105.215 94.502,105.227 94.453,105.227 C94.410,105.227 94.343,105.215 94.282,105.154 L89.197,100.071 C87.962,98.844 86.070,98.626 84.586,99.536 C80.388,102.118 75.838,104.000 71.069,105.136 C69.377,105.537 68.197,107.031 68.197,108.774 L68.197,115.947 C68.197,116.075 68.088,116.184 67.954,116.184 L52.527,116.184 C52.393,116.184 52.290,116.075 52.290,115.947 L52.290,108.774 C52.290,107.031 51.110,105.537 49.419,105.136 C44.649,104.000 40.099,102.118 35.902,99.536 C34.417,98.626 32.519,98.844 31.290,100.071 L26.198,105.154 C26.144,105.215 26.077,105.227 26.028,105.227 C25.986,105.227 25.919,105.215 25.858,105.154 L14.951,94.265 C14.890,94.204 14.878,94.137 14.878,94.095 C14.878,94.046 14.890,93.979 14.951,93.925 L20.042,88.841 C21.271,87.614 21.490,85.720 20.577,84.238 C17.992,80.047 16.107,75.510 14.975,70.742 C14.567,69.054 13.071,67.882 11.325,67.882 L4.147,67.882 C4.013,67.882 3.903,67.772 3.903,67.639 L3.903,52.237 C3.903,52.103 4.013,51.993 4.147,51.993 L11.325,51.993 C13.071,51.993 14.567,50.815 14.975,49.133 C16.107,44.365 17.992,39.828 20.577,35.637 C21.490,34.149 21.271,32.261 20.042,31.034 L14.951,25.950 C14.890,25.890 14.878,25.823 14.878,25.780 C14.878,25.732 14.890,25.665 14.951,25.610 L25.858,14.714 C25.919,14.660 25.986,14.647 26.028,14.647 C26.077,14.647 26.144,14.660 26.198,14.714 L31.290,19.798 C32.519,21.025 34.417,21.243 35.902,20.332 C40.099,17.757 44.649,15.874 49.419,14.739 C51.110,14.338 52.290,12.838 52.290,11.094 L52.290,3.928 C52.290,3.794 52.393,3.691 52.527,3.691 L67.960,3.691 C68.088,3.691 68.197,3.794 68.197,3.928 L68.197,11.094 C68.197,12.838 69.377,14.338 71.069,14.739 C75.838,15.874 80.388,17.757 84.586,20.332 C86.070,21.243 87.968,21.025 89.197,19.798 L94.282,14.714 C94.343,14.660 94.410,14.647 94.453,14.647 C94.502,14.647 94.568,14.660 94.623,14.714 L105.537,25.610 C105.591,25.665 105.603,25.732 105.603,25.780 C105.603,25.823 105.591,25.890 105.537,25.950 L100.445,31.034 C99.216,32.261 98.997,34.149 99.909,35.637 C102.489,39.828 104.374,44.365 105.512,49.133 C105.914,50.815 107.416,51.993 109.162,51.993 L116.340,51.993 C116.474,51.993 116.583,52.103 116.583,52.237 L116.583,67.639 C116.583,67.772 116.474,67.882 116.340,67.882 L109.162,67.882 C107.416,67.882 105.914,69.054 105.512,70.742 C104.374,75.510 102.489,80.047 99.909,84.238 C98.997,85.720 99.216,87.614 100.445,88.841 L105.537,93.925 C105.591,93.979 105.603,94.046 105.603,94.095 C105.603,94.137 105.591,94.204 105.537,94.265 L102.933,96.864 C102.252,97.544 102.252,98.650 102.933,99.330 C103.614,100.017 104.721,100.017 105.409,99.330 L108.006,96.737 C108.718,96.032 109.107,95.091 109.107,94.095 C109.107,93.099 108.718,92.157 108.012,91.453 L102.921,86.369 C102.841,86.290 102.830,86.169 102.890,86.066 C105.664,81.559 107.696,76.676 108.919,71.550 C108.943,71.447 109.047,71.374 109.162,71.374 L116.340,71.374 C118.403,71.374 120.081,69.698 120.081,67.639 L120.081,52.237 C120.081,50.177 118.403,48.501 116.340,48.501 "/>
<path fill-rule="evenodd"  fill="rgb(255, 255, 255)"
 d="M25.125,52.942 C24.170,52.796 23.282,53.458 23.142,54.412 C22.868,56.228 22.734,58.086 22.734,59.939 C22.734,80.588 39.560,97.388 60.244,97.388 C80.926,97.388 97.753,80.588 97.753,59.939 C97.753,39.289 80.926,22.489 60.244,22.489 C52.585,22.489 45.224,24.773 38.946,29.103 C32.814,33.331 28.124,39.210 25.381,46.097 L25.307,46.279 C24.954,47.178 25.393,48.192 26.293,48.545 C27.187,48.897 28.209,48.460 28.562,47.561 L28.629,47.385 C31.117,41.141 35.375,35.815 40.936,31.976 C46.623,28.053 53.302,25.982 60.244,25.982 C78.998,25.982 94.255,41.214 94.255,59.939 C94.255,78.657 78.998,93.889 60.244,93.889 C41.489,93.889 26.232,78.657 26.232,59.939 C26.232,58.256 26.354,56.574 26.597,54.922 C26.743,53.968 26.080,53.082 25.125,52.942 Z"/>
<path fill-rule="evenodd"  fill="rgb(255, 255, 255)"
 d="M55.274,78.068 C55.347,78.068 55.420,78.062 55.486,78.062 C57.506,78.002 59.453,77.121 60.822,75.639 L80.416,54.455 C81.778,52.973 82.490,51.053 82.411,49.043 C82.332,47.033 81.468,45.168 79.990,43.802 C76.930,40.984 72.148,41.178 69.326,44.227 L54.969,59.751 L50.863,55.791 C47.870,52.906 43.083,52.991 40.193,55.973 C37.297,58.961 37.383,63.741 40.370,66.632 L50.030,75.949 C51.441,77.315 53.309,78.068 55.274,78.068 M42.706,58.402 C43.496,57.583 44.561,57.170 45.620,57.170 C46.629,57.170 47.645,57.546 48.430,58.305 L53.820,63.504 C54.160,63.832 54.623,64.008 55.085,63.996 C55.560,63.984 56.004,63.784 56.326,63.437 L71.893,46.601 C73.408,44.962 75.975,44.858 77.617,46.371 C78.408,47.106 78.870,48.102 78.913,49.183 C78.956,50.258 78.579,51.290 77.842,52.086 L58.248,73.270 C57.512,74.066 56.472,74.540 55.389,74.570 C54.294,74.600 53.248,74.194 52.457,73.434 L42.803,64.118 C41.197,62.569 41.154,60.006 42.706,58.402 "/>
</svg>
