<svg 
 xmlns="http://www.w3.org/2000/svg"
 xmlns:xlink="http://www.w3.org/1999/xlink"
 width="110.324px" height="111.324px">
<path fill-rule="evenodd"  stroke="rgb(255, 255, 255)" stroke-width="2.883px" stroke-linecap="round" stroke-linejoin="round" fill="none"
 d="M43.766,106.039 L82.115,106.039 C84.552,106.039 86.530,104.064 86.530,101.632 L86.530,69.843 C86.530,67.417 84.558,65.442 82.127,65.436 L82.115,65.436 L74.004,65.436 C74.517,66.616 74.770,67.934 74.686,69.319 C74.445,73.545 71.031,76.994 66.798,77.289 C61.822,77.632 57.679,73.708 57.679,68.813 C57.679,67.615 57.932,66.472 58.379,65.436 L43.766,65.436 "/>
<path fill-rule="evenodd"  stroke="rgb(255, 255, 255)" stroke-width="2.883px" stroke-linecap="round" stroke-linejoin="round" fill="none"
 d="M7.505,65.438 C5.069,65.438 3.090,67.412 3.090,69.845 L3.090,101.634 C3.090,104.066 5.069,106.040 7.505,106.040 L43.768,106.040 L43.768,93.538 C44.799,93.983 45.945,94.236 47.145,94.236 C52.048,94.236 55.980,90.100 55.637,85.134 C55.341,80.908 51.885,77.501 47.652,77.260 C46.265,77.176 44.944,77.429 43.768,77.941 L43.768,65.438 "/>
<path fill-rule="evenodd"  stroke="rgb(255, 255, 255)" stroke-width="2.883px" stroke-linecap="round" stroke-linejoin="round" fill="none"
 d="M7.506,24.838 L43.769,24.838 L43.769,37.341 C44.800,36.889 45.946,36.643 47.146,36.643 C52.049,36.643 55.981,40.778 55.637,45.744 C55.342,49.970 51.886,53.371 47.653,53.618 C46.265,53.696 44.945,53.450 43.769,52.938 L43.769,65.441 L31.243,65.441 C31.689,66.476 31.936,67.614 31.936,68.812 C31.936,73.706 27.799,77.630 22.824,77.287 C18.590,76.992 15.177,73.549 14.929,69.317 C14.851,67.933 15.104,66.614 15.617,65.441 L7.506,65.441 C5.069,65.441 3.091,63.466 3.091,61.034 L3.091,29.245 C3.091,26.813 5.069,24.838 7.506,24.838 Z"/>
<path fill-rule="evenodd"  stroke="rgb(255, 255, 255)" stroke-width="2.883px" stroke-linecap="round" stroke-linejoin="round" fill="none"
 d="M105.817,14.917 L105.817,7.910 C105.817,5.472 103.839,3.504 101.402,3.504 L65.139,3.504 L65.139,16.007 C66.176,15.555 67.322,15.308 68.522,15.308 C73.419,15.308 77.357,19.444 77.013,24.404 C76.718,28.630 73.263,32.037 69.029,32.284 C67.642,32.362 66.321,32.109 65.139,31.598 L65.139,44.100 L77.665,44.100 C77.218,45.136 76.965,46.279 76.965,47.477 C76.965,52.371 81.108,56.296 86.084,55.953 C90.318,55.658 93.731,52.209 93.972,47.983 C94.056,46.598 93.803,45.280 93.291,44.100 L101.402,44.100 C103.839,44.100 105.817,42.132 105.817,39.694 L105.817,33.758 "/>
<path fill-rule="evenodd"  stroke="rgb(255, 255, 255)" stroke-width="2.883px" stroke-linecap="round" stroke-linejoin="round" fill="none"
 d="M105.817,24.376 L105.817,24.376 "/>
</svg>
