<svg 
 xmlns="http://www.w3.org/2000/svg"
 xmlns:xlink="http://www.w3.org/1999/xlink"
 width="180.152px" height="176.152px">
<path fill-rule="evenodd"  stroke="rgb(255, 255, 255)" stroke-width="1.076px" stroke-linecap="butt" stroke-linejoin="miter" fill="rgb(42, 177, 117)"
 d="M131.053,46.534 C119.875,35.356 105.013,29.200 89.204,29.200 C73.396,29.200 58.534,35.356 47.356,46.534 C36.178,57.712 30.022,72.574 30.022,88.382 C30.022,104.190 36.178,119.053 47.356,130.231 C58.534,141.409 73.396,147.565 89.204,147.565 C105.013,147.565 119.875,141.409 131.053,130.231 C142.231,119.052 148.387,104.190 148.387,88.382 C148.387,72.574 142.231,57.712 131.053,46.534 Z"/>
<path fill-rule="evenodd"  stroke="rgb(255, 255, 255)" stroke-width="1.076px" stroke-linecap="butt" stroke-linejoin="miter" fill="none"
 d="M131.053,46.534 C119.875,35.356 105.013,29.200 89.204,29.200 C73.396,29.200 58.534,35.356 47.356,46.534 C36.178,57.712 30.022,72.574 30.022,88.382 C30.022,104.190 36.178,119.053 47.356,130.231 C58.534,141.409 73.396,147.565 89.204,147.565 C105.013,147.565 119.875,141.409 131.053,130.231 C142.231,119.052 148.387,104.190 148.387,88.382 C148.387,72.574 142.231,57.712 131.053,46.534 Z"/>
<path fill-rule="evenodd"  stroke="rgb(255, 255, 255)" stroke-width="1.076px" stroke-linecap="butt" stroke-linejoin="miter" fill="rgb(42, 177, 117)"
 d="M89.798,23.845 L89.798,13.448 C89.798,13.239 89.629,13.070 89.420,13.070 C89.212,13.070 89.042,13.239 89.042,13.448 L89.042,23.845 C89.042,24.054 89.212,24.223 89.420,24.223 C89.629,24.223 89.798,24.054 89.798,23.845 Z"/>
<path fill-rule="evenodd"  stroke="rgb(255, 255, 255)" stroke-width="1.076px" stroke-linecap="butt" stroke-linejoin="miter" fill="rgb(42, 177, 117)"
 d="M94.657,26.552 C94.661,26.552 94.664,26.552 94.668,26.552 C94.732,26.552 94.788,26.503 94.793,26.438 L95.288,20.779 C95.295,20.710 95.243,20.649 95.174,20.643 C95.101,20.637 95.044,20.688 95.038,20.757 L94.542,26.416 C94.536,26.485 94.588,26.546 94.657,26.552 Z"/>
<path fill-rule="evenodd"  stroke="rgb(255, 255, 255)" stroke-width="1.076px" stroke-linecap="butt" stroke-linejoin="miter" fill="rgb(42, 177, 117)"
 d="M100.049,27.251 C100.109,27.251 100.162,27.208 100.173,27.147 L101.159,21.554 C101.171,21.485 101.125,21.420 101.056,21.408 C100.989,21.395 100.923,21.442 100.911,21.510 L99.925,27.104 C99.913,27.172 99.959,27.237 100.027,27.249 C100.034,27.251 100.042,27.251 100.049,27.251 Z"/>
<path fill-rule="evenodd"  stroke="rgb(255, 255, 255)" stroke-width="1.076px" stroke-linecap="butt" stroke-linejoin="miter" fill="rgb(42, 177, 117)"
 d="M105.347,28.423 C105.402,28.423 105.453,28.386 105.468,28.329 L106.938,22.842 C106.956,22.775 106.916,22.706 106.849,22.688 C106.783,22.671 106.713,22.710 106.695,22.777 L105.225,28.264 C105.207,28.331 105.247,28.400 105.314,28.419 C105.325,28.421 105.336,28.423 105.347,28.423 Z"/>
<path fill-rule="evenodd"  stroke="rgb(255, 255, 255)" stroke-width="1.076px" stroke-linecap="butt" stroke-linejoin="miter" fill="rgb(42, 177, 117)"
 d="M110.523,30.050 C110.575,30.050 110.623,30.018 110.642,29.967 L112.585,24.629 C112.608,24.564 112.575,24.492 112.509,24.468 C112.444,24.444 112.372,24.478 112.348,24.543 L110.405,29.881 C110.381,29.947 110.415,30.019 110.480,30.043 C110.494,30.048 110.509,30.050 110.523,30.050 Z"/>
<path fill-rule="evenodd"  stroke="rgb(255, 255, 255)" stroke-width="1.076px" stroke-linecap="butt" stroke-linejoin="miter" fill="rgb(42, 177, 117)"
 d="M115.649,32.059 L118.050,26.911 C118.079,26.848 118.052,26.773 117.989,26.744 C117.926,26.714 117.851,26.741 117.822,26.805 L115.421,31.953 C115.391,32.016 115.418,32.091 115.482,32.120 C115.499,32.128 115.517,32.132 115.535,32.132 C115.582,32.132 115.627,32.105 115.649,32.059 Z"/>
<path fill-rule="evenodd"  stroke="rgb(255, 255, 255)" stroke-width="1.076px" stroke-linecap="butt" stroke-linejoin="miter" fill="rgb(42, 177, 117)"
 d="M120.347,34.891 C120.477,34.891 120.604,34.823 120.674,34.702 L123.514,29.782 C123.619,29.602 123.557,29.371 123.376,29.266 C123.196,29.162 122.964,29.224 122.860,29.405 L120.020,34.324 C119.915,34.505 119.977,34.736 120.158,34.840 C120.217,34.874 120.282,34.891 120.347,34.891 Z"/>
<path fill-rule="evenodd"  stroke="rgb(255, 255, 255)" stroke-width="1.076px" stroke-linecap="butt" stroke-linejoin="miter" fill="rgb(42, 177, 117)"
 d="M125.022,37.507 L128.280,32.854 C128.320,32.797 128.306,32.718 128.249,32.679 C128.192,32.639 128.114,32.652 128.074,32.709 L124.816,37.362 C124.776,37.419 124.790,37.498 124.847,37.537 C124.869,37.553 124.894,37.560 124.919,37.560 C124.959,37.560 124.998,37.542 125.022,37.507 Z"/>
<path fill-rule="evenodd"  stroke="rgb(255, 255, 255)" stroke-width="1.076px" stroke-linecap="butt" stroke-linejoin="miter" fill="rgb(42, 177, 117)"
 d="M129.317,40.821 L132.968,36.470 C133.012,36.417 133.005,36.337 132.952,36.293 C132.899,36.248 132.819,36.255 132.775,36.308 L129.124,40.660 C129.080,40.713 129.086,40.792 129.140,40.837 C129.163,40.857 129.192,40.866 129.221,40.866 C129.257,40.866 129.292,40.851 129.317,40.821 Z"/>
<path fill-rule="evenodd"  stroke="rgb(255, 255, 255)" stroke-width="1.076px" stroke-linecap="butt" stroke-linejoin="miter" fill="rgb(42, 177, 117)"
 d="M137.149,40.297 L133.133,44.314 C133.084,44.363 133.084,44.442 133.133,44.491 C133.157,44.516 133.190,44.528 133.222,44.528 C133.254,44.528 133.286,44.516 133.311,44.491 L137.327,40.475 C137.376,40.426 137.376,40.347 137.327,40.297 C137.278,40.248 137.198,40.248 137.149,40.297 Z"/>
<path fill-rule="evenodd"  stroke="rgb(255, 255, 255)" stroke-width="1.076px" stroke-linecap="butt" stroke-linejoin="miter" fill="rgb(42, 177, 117)"
 d="M141.154,44.657 L136.804,48.308 C136.751,48.353 136.744,48.433 136.789,48.486 C136.814,48.515 136.849,48.531 136.885,48.531 C136.913,48.531 136.942,48.521 136.966,48.501 L141.316,44.849 C141.370,44.805 141.377,44.725 141.332,44.672 C141.287,44.619 141.208,44.612 141.154,44.657 Z"/>
<path fill-rule="evenodd"  stroke="rgb(255, 255, 255)" stroke-width="1.076px" stroke-linecap="butt" stroke-linejoin="miter" fill="rgb(42, 177, 117)"
 d="M144.771,49.344 L140.119,52.602 C140.062,52.642 140.048,52.720 140.088,52.777 C140.113,52.812 140.152,52.831 140.191,52.831 C140.216,52.831 140.242,52.824 140.264,52.808 L144.916,49.551 C144.973,49.511 144.987,49.432 144.947,49.375 C144.907,49.318 144.828,49.304 144.771,49.344 Z"/>
<path fill-rule="evenodd"  stroke="rgb(255, 255, 255)" stroke-width="1.076px" stroke-linecap="butt" stroke-linejoin="miter" fill="rgb(42, 177, 117)"
 d="M147.843,54.110 L142.923,56.951 C142.742,57.055 142.681,57.286 142.785,57.467 C142.855,57.588 142.982,57.656 143.112,57.656 C143.176,57.656 143.241,57.639 143.301,57.605 L148.220,54.764 C148.401,54.660 148.463,54.429 148.359,54.248 C148.254,54.068 148.023,54.006 147.843,54.110 Z"/>
<path fill-rule="evenodd"  stroke="rgb(255, 255, 255)" stroke-width="1.076px" stroke-linecap="butt" stroke-linejoin="miter" fill="rgb(42, 177, 117)"
 d="M150.715,59.576 L145.566,61.977 C145.503,62.006 145.475,62.081 145.505,62.144 C145.526,62.190 145.572,62.217 145.619,62.217 C145.637,62.217 145.655,62.213 145.672,62.205 L150.821,59.804 C150.884,59.775 150.912,59.700 150.882,59.637 C150.853,59.573 150.777,59.546 150.715,59.576 Z"/>
<path fill-rule="evenodd"  stroke="rgb(255, 255, 255)" stroke-width="1.076px" stroke-linecap="butt" stroke-linejoin="miter" fill="rgb(42, 177, 117)"
 d="M152.996,65.040 L147.658,66.983 C147.592,67.007 147.559,67.079 147.582,67.145 C147.601,67.196 147.649,67.228 147.701,67.228 C147.715,67.228 147.730,67.225 147.744,67.220 L153.082,65.276 C153.148,65.253 153.181,65.181 153.158,65.115 C153.134,65.050 153.062,65.016 152.996,65.040 Z"/>
<path fill-rule="evenodd"  stroke="rgb(255, 255, 255)" stroke-width="1.076px" stroke-linecap="butt" stroke-linejoin="miter" fill="rgb(42, 177, 117)"
 d="M154.783,70.686 L149.295,72.157 C149.228,72.175 149.188,72.244 149.206,72.311 C149.221,72.367 149.272,72.404 149.328,72.404 C149.339,72.404 149.350,72.403 149.361,72.400 L154.848,70.930 C154.915,70.911 154.955,70.843 154.937,70.775 C154.919,70.708 154.851,70.669 154.783,70.686 Z"/>
<path fill-rule="evenodd"  stroke="rgb(255, 255, 255)" stroke-width="1.076px" stroke-linecap="butt" stroke-linejoin="miter" fill="rgb(42, 177, 117)"
 d="M150.376,77.598 C150.387,77.659 150.440,77.702 150.500,77.702 C150.507,77.702 150.514,77.701 150.522,77.700 L156.115,76.714 C156.183,76.702 156.229,76.637 156.217,76.568 C156.205,76.500 156.139,76.453 156.071,76.466 L150.478,77.452 C150.410,77.464 150.364,77.529 150.376,77.598 Z"/>
<path fill-rule="evenodd"  stroke="rgb(255, 255, 255)" stroke-width="1.076px" stroke-linecap="butt" stroke-linejoin="miter" fill="rgb(42, 177, 117)"
 d="M156.982,82.451 C156.976,82.382 156.918,82.331 156.846,82.336 L151.188,82.832 C151.119,82.838 151.067,82.899 151.073,82.968 C151.079,83.034 151.134,83.083 151.199,83.083 C151.202,83.083 151.206,83.083 151.210,83.082 L156.868,82.587 C156.937,82.581 156.988,82.520 156.982,82.451 Z"/>
<path fill-rule="evenodd"  stroke="rgb(255, 255, 255)" stroke-width="1.076px" stroke-linecap="butt" stroke-linejoin="miter" fill="rgb(42, 177, 117)"
 d="M164.007,88.057 L154.009,88.057 C153.801,88.057 153.632,88.226 153.632,88.434 C153.632,88.643 153.801,88.812 154.009,88.812 L164.007,88.812 C164.216,88.812 164.385,88.643 164.385,88.434 C164.385,88.226 164.216,88.057 164.007,88.057 Z"/>
<path fill-rule="evenodd"  stroke="rgb(255, 255, 255)" stroke-width="1.076px" stroke-linecap="butt" stroke-linejoin="miter" fill="rgb(42, 177, 117)"
 d="M156.857,94.417 C156.921,94.417 156.976,94.368 156.982,94.302 C156.988,94.233 156.937,94.172 156.868,94.166 L151.210,93.671 C151.136,93.666 151.080,93.716 151.073,93.785 C151.067,93.854 151.119,93.915 151.188,93.921 L156.846,94.417 C156.849,94.417 156.853,94.417 156.857,94.417 Z"/>
<path fill-rule="evenodd"  stroke="rgb(255, 255, 255)" stroke-width="1.076px" stroke-linecap="butt" stroke-linejoin="miter" fill="rgb(42, 177, 117)"
 d="M156.093,100.290 C156.153,100.290 156.206,100.247 156.217,100.185 C156.229,100.117 156.183,100.052 156.115,100.040 L150.521,99.053 C150.455,99.040 150.387,99.087 150.375,99.155 C150.363,99.224 150.409,99.289 150.477,99.301 L156.071,100.288 C156.079,100.289 156.086,100.290 156.093,100.290 Z"/>
<path fill-rule="evenodd"  stroke="rgb(255, 255, 255)" stroke-width="1.076px" stroke-linecap="butt" stroke-linejoin="miter" fill="rgb(42, 177, 117)"
 d="M154.815,106.070 C154.870,106.070 154.921,106.033 154.937,105.977 C154.955,105.910 154.915,105.841 154.847,105.823 L149.360,104.353 C149.294,104.338 149.224,104.375 149.206,104.442 C149.188,104.509 149.228,104.578 149.295,104.596 L154.783,106.066 C154.793,106.069 154.804,106.070 154.815,106.070 Z"/>
<path fill-rule="evenodd"  stroke="rgb(255, 255, 255)" stroke-width="1.076px" stroke-linecap="butt" stroke-linejoin="miter" fill="rgb(42, 177, 117)"
 d="M153.039,111.721 C153.090,111.721 153.138,111.689 153.157,111.638 C153.181,111.572 153.147,111.500 153.082,111.477 L147.744,109.533 C147.679,109.510 147.606,109.543 147.582,109.609 C147.559,109.674 147.592,109.746 147.658,109.770 L152.996,111.713 C153.010,111.718 153.024,111.721 153.039,111.721 Z"/>
<path fill-rule="evenodd"  stroke="rgb(255, 255, 255)" stroke-width="1.076px" stroke-linecap="butt" stroke-linejoin="miter" fill="rgb(42, 177, 117)"
 d="M150.767,117.189 C150.815,117.189 150.860,117.162 150.881,117.116 C150.911,117.053 150.884,116.978 150.820,116.949 L145.672,114.548 C145.610,114.519 145.535,114.546 145.505,114.609 C145.475,114.672 145.503,114.747 145.566,114.776 L150.714,117.177 C150.731,117.185 150.749,117.189 150.767,117.189 Z"/>
<path fill-rule="evenodd"  stroke="rgb(255, 255, 255)" stroke-width="1.076px" stroke-linecap="butt" stroke-linejoin="miter" fill="rgb(42, 177, 117)"
 d="M148.031,122.692 C148.162,122.692 148.289,122.625 148.359,122.504 C148.463,122.323 148.401,122.092 148.220,121.988 L143.301,119.148 C143.121,119.044 142.889,119.105 142.785,119.287 C142.681,119.467 142.742,119.698 142.923,119.802 L147.843,122.642 C147.902,122.676 147.967,122.692 148.031,122.692 Z"/>
<path fill-rule="evenodd"  stroke="rgb(255, 255, 255)" stroke-width="1.076px" stroke-linecap="butt" stroke-linejoin="miter" fill="rgb(42, 177, 117)"
 d="M144.844,127.431 C144.884,127.431 144.923,127.412 144.947,127.377 C144.987,127.320 144.973,127.242 144.916,127.202 L140.264,123.943 C140.207,123.904 140.128,123.917 140.088,123.974 C140.048,124.031 140.062,124.110 140.119,124.149 L144.772,127.408 C144.794,127.424 144.819,127.431 144.844,127.431 Z"/>
<path fill-rule="evenodd"  stroke="rgb(255, 255, 255)" stroke-width="1.076px" stroke-linecap="butt" stroke-linejoin="miter" fill="rgb(42, 177, 117)"
 d="M141.236,132.125 C141.272,132.125 141.308,132.110 141.332,132.080 C141.377,132.027 141.370,131.947 141.317,131.903 L136.966,128.252 C136.913,128.207 136.833,128.214 136.789,128.268 C136.744,128.321 136.751,128.400 136.804,128.445 L141.155,132.095 C141.179,132.115 141.208,132.125 141.236,132.125 Z"/>
<path fill-rule="evenodd"  stroke="rgb(255, 255, 255)" stroke-width="1.076px" stroke-linecap="butt" stroke-linejoin="miter" fill="rgb(42, 177, 117)"
 d="M137.149,136.455 C137.174,136.480 137.206,136.492 137.238,136.492 C137.270,136.492 137.303,136.480 137.327,136.455 C137.376,136.406 137.376,136.326 137.327,136.277 L133.311,132.261 C133.262,132.211 133.182,132.211 133.133,132.261 C133.084,132.310 133.084,132.389 133.133,132.439 L137.149,136.455 Z"/>
<path fill-rule="evenodd"  stroke="rgb(255, 255, 255)" stroke-width="1.076px" stroke-linecap="butt" stroke-linejoin="miter" fill="rgb(42, 177, 117)"
 d="M129.140,135.916 C129.086,135.961 129.080,136.040 129.124,136.094 L132.775,140.445 C132.800,140.475 132.835,140.490 132.871,140.490 C132.900,140.490 132.928,140.480 132.952,140.460 C133.005,140.415 133.012,140.336 132.968,140.283 L129.317,135.932 C129.272,135.878 129.193,135.871 129.140,135.916 Z"/>
<path fill-rule="evenodd"  stroke="rgb(255, 255, 255)" stroke-width="1.076px" stroke-linecap="butt" stroke-linejoin="miter" fill="rgb(42, 177, 117)"
 d="M124.847,139.216 C124.790,139.255 124.776,139.334 124.816,139.391 L128.074,144.044 C128.098,144.079 128.137,144.098 128.177,144.098 C128.202,144.098 128.227,144.091 128.249,144.075 C128.306,144.035 128.320,143.957 128.280,143.900 L125.022,139.246 C124.983,139.189 124.904,139.176 124.847,139.216 Z"/>
<path fill-rule="evenodd"  stroke="rgb(255, 255, 255)" stroke-width="1.076px" stroke-linecap="butt" stroke-linejoin="miter" fill="rgb(42, 177, 117)"
 d="M120.158,141.913 C119.977,142.017 119.915,142.248 120.020,142.429 L122.860,147.348 C122.930,147.469 123.057,147.537 123.188,147.537 C123.252,147.537 123.317,147.521 123.376,147.486 C123.557,147.382 123.619,147.151 123.514,146.970 L120.674,142.051 C120.570,141.870 120.338,141.808 120.158,141.913 Z"/>
<path fill-rule="evenodd"  stroke="rgb(255, 255, 255)" stroke-width="1.076px" stroke-linecap="butt" stroke-linejoin="miter" fill="rgb(42, 177, 117)"
 d="M115.482,144.633 C115.418,144.662 115.391,144.737 115.421,144.800 L117.822,149.949 C117.843,149.995 117.889,150.022 117.936,150.022 C117.954,150.022 117.972,150.018 117.989,150.010 C118.052,149.980 118.079,149.905 118.050,149.843 L115.649,144.694 C115.619,144.631 115.544,144.604 115.482,144.633 Z"/>
<path fill-rule="evenodd"  stroke="rgb(255, 255, 255)" stroke-width="1.076px" stroke-linecap="butt" stroke-linejoin="miter" fill="rgb(42, 177, 117)"
 d="M110.480,146.710 C110.415,146.733 110.381,146.805 110.405,146.871 L112.348,152.210 C112.367,152.261 112.415,152.293 112.466,152.293 C112.481,152.293 112.495,152.291 112.509,152.285 C112.575,152.262 112.608,152.190 112.585,152.124 L110.642,146.785 C110.618,146.719 110.546,146.686 110.480,146.710 Z"/>
<path fill-rule="evenodd"  stroke="rgb(255, 255, 255)" stroke-width="1.076px" stroke-linecap="butt" stroke-linejoin="miter" fill="rgb(42, 177, 117)"
 d="M105.314,148.334 C105.247,148.352 105.207,148.421 105.225,148.489 L106.696,153.976 C106.711,154.032 106.762,154.069 106.817,154.069 C106.828,154.069 106.839,154.068 106.850,154.065 C106.917,154.047 106.957,153.978 106.939,153.911 L105.469,148.423 C105.451,148.356 105.382,148.319 105.314,148.334 Z"/>
<path fill-rule="evenodd"  stroke="rgb(255, 255, 255)" stroke-width="1.076px" stroke-linecap="butt" stroke-linejoin="miter" fill="rgb(42, 177, 117)"
 d="M100.027,149.504 C99.959,149.516 99.913,149.581 99.925,149.649 L100.911,155.243 C100.922,155.304 100.975,155.347 101.035,155.347 C101.042,155.347 101.050,155.347 101.057,155.346 C101.126,155.333 101.171,155.268 101.159,155.200 L100.173,149.606 C100.161,149.537 100.094,149.490 100.027,149.504 Z"/>
<path fill-rule="evenodd"  stroke="rgb(255, 255, 255)" stroke-width="1.076px" stroke-linecap="butt" stroke-linejoin="miter" fill="rgb(42, 177, 117)"
 d="M95.289,155.974 L94.793,150.316 C94.787,150.247 94.730,150.196 94.657,150.201 C94.588,150.207 94.536,150.268 94.543,150.338 L95.038,155.996 C95.044,156.061 95.099,156.110 95.163,156.110 C95.167,156.110 95.170,156.110 95.174,156.110 C95.244,156.104 95.295,156.043 95.289,155.974 Z"/>
<path fill-rule="evenodd"  stroke="rgb(255, 255, 255)" stroke-width="1.076px" stroke-linecap="butt" stroke-linejoin="miter" fill="rgb(42, 177, 117)"
 d="M89.042,153.425 L89.042,163.022 C89.042,163.231 89.212,163.400 89.420,163.400 C89.629,163.400 89.798,163.231 89.798,163.022 L89.798,153.425 C89.798,153.216 89.629,153.047 89.420,153.047 C89.212,153.047 89.042,153.216 89.042,153.425 Z"/>
<path fill-rule="evenodd"  stroke="rgb(255, 255, 255)" stroke-width="1.076px" stroke-linecap="butt" stroke-linejoin="miter" fill="rgb(42, 177, 117)"
 d="M83.840,150.201 C83.766,150.195 83.710,150.247 83.704,150.316 L83.208,155.974 C83.202,156.043 83.254,156.104 83.323,156.110 C83.327,156.110 83.330,156.110 83.334,156.110 C83.399,156.110 83.454,156.061 83.459,155.996 L83.955,150.338 C83.961,150.268 83.909,150.207 83.840,150.201 Z"/>
<path fill-rule="evenodd"  stroke="rgb(255, 255, 255)" stroke-width="1.076px" stroke-linecap="butt" stroke-linejoin="miter" fill="rgb(42, 177, 117)"
 d="M78.325,149.606 L77.338,155.200 C77.326,155.268 77.372,155.333 77.440,155.346 C77.448,155.347 77.455,155.347 77.463,155.347 C77.522,155.347 77.576,155.304 77.586,155.243 L78.573,149.649 C78.585,149.581 78.539,149.516 78.471,149.504 C78.402,149.490 78.337,149.537 78.325,149.606 Z"/>
<path fill-rule="evenodd"  stroke="rgb(255, 255, 255)" stroke-width="1.076px" stroke-linecap="butt" stroke-linejoin="miter" fill="rgb(42, 177, 117)"
 d="M73.028,148.424 L71.558,153.911 C71.540,153.978 71.580,154.047 71.647,154.065 C71.658,154.068 71.669,154.069 71.680,154.069 C71.735,154.069 71.786,154.032 71.802,153.976 L73.272,148.489 C73.290,148.421 73.250,148.352 73.182,148.334 C73.116,148.319 73.046,148.356 73.028,148.424 Z"/>
<path fill-rule="evenodd"  stroke="rgb(255, 255, 255)" stroke-width="1.076px" stroke-linecap="butt" stroke-linejoin="miter" fill="rgb(42, 177, 117)"
 d="M67.856,146.785 L65.912,152.124 C65.888,152.190 65.922,152.262 65.987,152.285 C66.002,152.291 66.016,152.293 66.030,152.293 C66.082,152.293 66.130,152.261 66.149,152.210 L68.092,146.871 C68.116,146.805 68.082,146.733 68.017,146.710 C67.952,146.686 67.880,146.719 67.856,146.785 Z"/>
<path fill-rule="evenodd"  stroke="rgb(255, 255, 255)" stroke-width="1.076px" stroke-linecap="butt" stroke-linejoin="miter" fill="rgb(42, 177, 117)"
 d="M62.848,144.694 L60.447,149.843 C60.417,149.905 60.445,149.980 60.508,150.010 C60.525,150.018 60.543,150.022 60.561,150.022 C60.608,150.022 60.654,149.995 60.675,149.949 L63.076,144.800 C63.106,144.737 63.079,144.662 63.015,144.633 C62.953,144.604 62.878,144.631 62.848,144.694 Z"/>
<path fill-rule="evenodd"  stroke="rgb(255, 255, 255)" stroke-width="1.076px" stroke-linecap="butt" stroke-linejoin="miter" fill="rgb(42, 177, 117)"
 d="M57.823,142.051 L54.983,146.970 C54.878,147.151 54.940,147.382 55.121,147.486 C55.180,147.521 55.245,147.537 55.310,147.537 C55.440,147.537 55.567,147.469 55.637,147.348 L58.477,142.429 C58.581,142.248 58.520,142.017 58.339,141.913 C58.158,141.808 57.927,141.870 57.823,142.051 Z"/>
<path fill-rule="evenodd"  stroke="rgb(255, 255, 255)" stroke-width="1.076px" stroke-linecap="butt" stroke-linejoin="miter" fill="rgb(42, 177, 117)"
 d="M53.475,139.246 L50.218,143.900 C50.178,143.957 50.192,144.035 50.249,144.075 C50.271,144.091 50.296,144.098 50.321,144.098 C50.361,144.098 50.400,144.079 50.424,144.044 L53.681,139.391 C53.721,139.334 53.707,139.255 53.651,139.216 C53.594,139.176 53.515,139.189 53.475,139.246 Z"/>
<path fill-rule="evenodd"  stroke="rgb(255, 255, 255)" stroke-width="1.076px" stroke-linecap="butt" stroke-linejoin="miter" fill="rgb(42, 177, 117)"
 d="M49.180,135.932 L45.529,140.283 C45.484,140.336 45.491,140.415 45.545,140.460 C45.568,140.480 45.597,140.490 45.626,140.490 C45.661,140.490 45.697,140.475 45.722,140.445 L49.373,136.094 C49.418,136.041 49.411,135.961 49.358,135.916 C49.305,135.872 49.225,135.879 49.180,135.932 Z"/>
<path fill-rule="evenodd"  stroke="rgb(255, 255, 255)" stroke-width="1.076px" stroke-linecap="butt" stroke-linejoin="miter" fill="rgb(42, 177, 117)"
 d="M41.258,136.492 C41.291,136.492 41.323,136.480 41.347,136.455 L45.364,132.439 C45.413,132.389 45.413,132.310 45.364,132.261 C45.314,132.211 45.235,132.211 45.186,132.261 L41.169,136.277 C41.120,136.326 41.120,136.406 41.169,136.455 C41.194,136.480 41.226,136.492 41.258,136.492 Z"/>
<path fill-rule="evenodd"  stroke="rgb(255, 255, 255)" stroke-width="1.076px" stroke-linecap="butt" stroke-linejoin="miter" fill="rgb(42, 177, 117)"
 d="M37.261,132.125 C37.290,132.125 37.319,132.115 37.342,132.095 L41.693,128.445 C41.746,128.400 41.753,128.321 41.708,128.268 C41.664,128.214 41.584,128.207 41.531,128.252 L37.180,131.903 C37.127,131.947 37.120,132.027 37.165,132.080 C37.190,132.110 37.225,132.125 37.261,132.125 Z"/>
<path fill-rule="evenodd"  stroke="rgb(255, 255, 255)" stroke-width="1.076px" stroke-linecap="butt" stroke-linejoin="miter" fill="rgb(42, 177, 117)"
 d="M33.653,127.431 C33.678,127.431 33.703,127.424 33.725,127.408 L38.378,124.149 C38.434,124.110 38.448,124.031 38.408,123.974 C38.369,123.917 38.290,123.904 38.233,123.943 L33.580,127.202 C33.523,127.242 33.509,127.320 33.549,127.377 C33.574,127.412 33.613,127.431 33.653,127.431 Z"/>
<path fill-rule="evenodd"  stroke="rgb(255, 255, 255)" stroke-width="1.076px" stroke-linecap="butt" stroke-linejoin="miter" fill="rgb(42, 177, 117)"
 d="M30.465,122.692 C30.530,122.692 30.595,122.676 30.654,122.642 L35.574,119.802 C35.755,119.698 35.817,119.467 35.712,119.286 C35.608,119.105 35.377,119.043 35.196,119.148 L30.276,121.988 C30.096,122.092 30.034,122.323 30.138,122.504 C30.208,122.625 30.335,122.692 30.465,122.692 Z"/>
<path fill-rule="evenodd"  stroke="rgb(255, 255, 255)" stroke-width="1.076px" stroke-linecap="butt" stroke-linejoin="miter" fill="rgb(42, 177, 117)"
 d="M27.729,117.189 C27.747,117.189 27.765,117.185 27.782,117.177 L32.931,114.776 C32.994,114.747 33.021,114.672 32.992,114.609 C32.962,114.546 32.887,114.519 32.824,114.548 L27.676,116.949 C27.613,116.978 27.585,117.053 27.615,117.116 C27.636,117.162 27.682,117.189 27.729,117.189 Z"/>
<path fill-rule="evenodd"  stroke="rgb(255, 255, 255)" stroke-width="1.076px" stroke-linecap="butt" stroke-linejoin="miter" fill="rgb(42, 177, 117)"
 d="M25.458,111.720 C25.472,111.720 25.487,111.717 25.501,111.712 L30.839,109.770 C30.905,109.746 30.939,109.674 30.915,109.609 C30.891,109.543 30.819,109.510 30.753,109.533 L25.415,111.476 C25.349,111.499 25.316,111.571 25.340,111.637 C25.358,111.688 25.406,111.720 25.458,111.720 Z"/>
<path fill-rule="evenodd"  stroke="rgb(255, 255, 255)" stroke-width="1.076px" stroke-linecap="butt" stroke-linejoin="miter" fill="rgb(42, 177, 117)"
 d="M23.682,106.070 C23.692,106.070 23.703,106.069 23.714,106.066 L29.201,104.596 C29.269,104.578 29.309,104.509 29.291,104.442 C29.273,104.375 29.203,104.337 29.136,104.353 L23.649,105.823 C23.582,105.841 23.542,105.910 23.560,105.977 C23.575,106.033 23.626,106.070 23.682,106.070 Z"/>
<path fill-rule="evenodd"  stroke="rgb(255, 255, 255)" stroke-width="1.076px" stroke-linecap="butt" stroke-linejoin="miter" fill="rgb(42, 177, 117)"
 d="M22.403,100.290 C22.410,100.290 22.418,100.289 22.425,100.288 L28.019,99.301 C28.088,99.289 28.133,99.224 28.121,99.155 C28.109,99.087 28.042,99.040 27.976,99.053 L22.381,100.040 C22.313,100.052 22.267,100.117 22.279,100.185 C22.290,100.247 22.343,100.290 22.403,100.290 Z"/>
<path fill-rule="evenodd"  stroke="rgb(255, 255, 255)" stroke-width="1.076px" stroke-linecap="butt" stroke-linejoin="miter" fill="rgb(42, 177, 117)"
 d="M21.515,94.302 C21.520,94.368 21.576,94.417 21.640,94.417 C21.644,94.417 21.647,94.417 21.651,94.417 L27.309,93.921 C27.378,93.915 27.430,93.854 27.423,93.785 C27.417,93.716 27.359,93.666 27.287,93.671 L21.629,94.166 C21.560,94.172 21.509,94.233 21.515,94.302 Z"/>
<path fill-rule="evenodd"  stroke="rgb(255, 255, 255)" stroke-width="1.076px" stroke-linecap="butt" stroke-linejoin="miter" fill="rgb(42, 177, 117)"
 d="M24.009,88.434 C24.009,88.226 23.839,88.057 23.631,88.057 L14.433,88.057 C14.225,88.057 14.055,88.226 14.055,88.434 C14.055,88.643 14.225,88.812 14.433,88.812 L23.631,88.812 C23.839,88.812 24.009,88.643 24.009,88.434 Z"/>
<path fill-rule="evenodd"  stroke="rgb(255, 255, 255)" stroke-width="1.076px" stroke-linecap="butt" stroke-linejoin="miter" fill="rgb(42, 177, 117)"
 d="M21.515,82.451 C21.509,82.520 21.560,82.581 21.629,82.587 L27.287,83.082 C27.291,83.083 27.295,83.083 27.298,83.083 C27.363,83.083 27.418,83.034 27.423,82.968 C27.430,82.899 27.378,82.838 27.309,82.832 L21.651,82.336 C21.578,82.330 21.521,82.382 21.515,82.451 Z"/>
<path fill-rule="evenodd"  stroke="rgb(255, 255, 255)" stroke-width="1.076px" stroke-linecap="butt" stroke-linejoin="miter" fill="rgb(42, 177, 117)"
 d="M22.279,76.568 C22.267,76.637 22.313,76.702 22.381,76.714 L27.976,77.700 C27.983,77.701 27.990,77.702 27.998,77.702 C28.057,77.702 28.111,77.659 28.121,77.598 C28.133,77.529 28.088,77.464 28.019,77.452 L22.425,76.466 C22.358,76.453 22.291,76.500 22.279,76.568 Z"/>
<path fill-rule="evenodd"  stroke="rgb(255, 255, 255)" stroke-width="1.076px" stroke-linecap="butt" stroke-linejoin="miter" fill="rgb(42, 177, 117)"
 d="M23.560,70.775 C23.542,70.843 23.582,70.911 23.649,70.930 L29.136,72.400 C29.147,72.402 29.158,72.404 29.169,72.404 C29.225,72.404 29.275,72.367 29.291,72.310 C29.309,72.243 29.269,72.174 29.201,72.156 L23.714,70.686 C23.649,70.669 23.578,70.708 23.560,70.775 Z"/>
<path fill-rule="evenodd"  stroke="rgb(255, 255, 255)" stroke-width="1.076px" stroke-linecap="butt" stroke-linejoin="miter" fill="rgb(42, 177, 117)"
 d="M25.340,65.115 C25.316,65.181 25.349,65.253 25.415,65.276 L30.753,67.220 C30.768,67.225 30.782,67.228 30.796,67.228 C30.848,67.228 30.896,67.196 30.915,67.145 C30.939,67.079 30.905,67.007 30.839,66.983 L25.501,65.040 C25.435,65.016 25.363,65.050 25.340,65.115 Z"/>
<path fill-rule="evenodd"  stroke="rgb(255, 255, 255)" stroke-width="1.076px" stroke-linecap="butt" stroke-linejoin="miter" fill="rgb(42, 177, 117)"
 d="M27.615,59.637 C27.585,59.700 27.613,59.775 27.676,59.804 L32.824,62.205 C32.842,62.213 32.860,62.217 32.878,62.217 C32.925,62.217 32.970,62.190 32.992,62.144 C33.021,62.081 32.994,62.006 32.931,61.977 L27.782,59.576 C27.720,59.546 27.645,59.573 27.615,59.637 Z"/>
<path fill-rule="evenodd"  stroke="rgb(255, 255, 255)" stroke-width="1.076px" stroke-linecap="butt" stroke-linejoin="miter" fill="rgb(42, 177, 117)"
 d="M30.138,54.248 C30.034,54.429 30.096,54.660 30.276,54.764 L35.196,57.605 C35.256,57.639 35.321,57.656 35.385,57.656 C35.515,57.656 35.643,57.588 35.712,57.467 C35.817,57.286 35.755,57.055 35.574,56.951 L30.654,54.110 C30.474,54.006 30.242,54.068 30.138,54.248 Z"/>
<path fill-rule="evenodd"  stroke="rgb(255, 255, 255)" stroke-width="1.076px" stroke-linecap="butt" stroke-linejoin="miter" fill="rgb(42, 177, 117)"
 d="M33.549,49.376 C33.509,49.433 33.523,49.511 33.580,49.551 L38.233,52.809 C38.255,52.825 38.280,52.832 38.305,52.832 C38.345,52.832 38.384,52.813 38.408,52.778 C38.448,52.721 38.434,52.643 38.378,52.603 L33.725,49.345 C33.668,49.305 33.589,49.319 33.549,49.376 Z"/>
<path fill-rule="evenodd"  stroke="rgb(255, 255, 255)" stroke-width="1.076px" stroke-linecap="butt" stroke-linejoin="miter" fill="rgb(42, 177, 117)"
 d="M37.165,44.674 C37.120,44.727 37.127,44.806 37.180,44.851 L41.531,48.501 C41.555,48.521 41.583,48.531 41.612,48.531 C41.648,48.531 41.684,48.515 41.708,48.486 C41.753,48.432 41.746,48.353 41.693,48.308 L37.342,44.658 C37.289,44.613 37.210,44.620 37.165,44.674 Z"/>
<path fill-rule="evenodd"  stroke="rgb(255, 255, 255)" stroke-width="1.076px" stroke-linecap="butt" stroke-linejoin="miter" fill="rgb(42, 177, 117)"
 d="M45.275,44.529 C45.307,44.529 45.339,44.517 45.364,44.492 C45.413,44.443 45.413,44.363 45.364,44.314 L41.347,40.298 C41.298,40.249 41.218,40.249 41.169,40.298 C41.120,40.347 41.120,40.427 41.169,40.476 L45.186,44.492 C45.210,44.517 45.242,44.529 45.275,44.529 Z"/>
<path fill-rule="evenodd"  stroke="rgb(255, 255, 255)" stroke-width="1.076px" stroke-linecap="butt" stroke-linejoin="miter" fill="rgb(42, 177, 117)"
 d="M49.277,40.866 C49.305,40.866 49.334,40.857 49.358,40.837 C49.411,40.792 49.418,40.713 49.373,40.660 L45.722,36.308 C45.677,36.255 45.598,36.248 45.545,36.293 C45.491,36.338 45.484,36.417 45.529,36.470 L49.180,40.821 C49.205,40.851 49.241,40.866 49.277,40.866 Z"/>
<path fill-rule="evenodd"  stroke="rgb(255, 255, 255)" stroke-width="1.076px" stroke-linecap="butt" stroke-linejoin="miter" fill="rgb(42, 177, 117)"
 d="M53.578,37.560 C53.603,37.560 53.628,37.553 53.650,37.537 C53.707,37.498 53.721,37.419 53.681,37.362 L50.422,32.709 C50.383,32.652 50.304,32.639 50.247,32.679 C50.190,32.718 50.176,32.797 50.216,32.854 L53.475,37.507 C53.499,37.542 53.538,37.560 53.578,37.560 Z"/>
<path fill-rule="evenodd"  stroke="rgb(255, 255, 255)" stroke-width="1.076px" stroke-linecap="butt" stroke-linejoin="miter" fill="rgb(42, 177, 117)"
 d="M58.150,34.891 C58.214,34.891 58.279,34.874 58.339,34.840 C58.520,34.736 58.581,34.505 58.477,34.324 L55.637,29.405 C55.533,29.224 55.301,29.162 55.121,29.266 C54.940,29.371 54.878,29.602 54.983,29.782 L57.823,34.702 C57.893,34.823 58.020,34.891 58.150,34.891 Z"/>
<path fill-rule="evenodd"  stroke="rgb(255, 255, 255)" stroke-width="1.076px" stroke-linecap="butt" stroke-linejoin="miter" fill="rgb(42, 177, 117)"
 d="M62.962,32.132 C62.980,32.132 62.998,32.128 63.015,32.120 C63.079,32.091 63.106,32.016 63.076,31.953 L60.675,26.805 C60.646,26.741 60.570,26.714 60.508,26.744 C60.445,26.773 60.417,26.848 60.447,26.911 L62.848,32.059 C62.870,32.105 62.915,32.132 62.962,32.132 Z"/>
<path fill-rule="evenodd"  stroke="rgb(255, 255, 255)" stroke-width="1.076px" stroke-linecap="butt" stroke-linejoin="miter" fill="rgb(42, 177, 117)"
 d="M67.973,30.050 C67.988,30.050 68.002,30.048 68.016,30.043 C68.082,30.019 68.116,29.947 68.092,29.881 L66.149,24.543 C66.125,24.478 66.053,24.444 65.987,24.468 C65.922,24.492 65.888,24.564 65.912,24.629 L67.855,29.967 C67.874,30.018 67.922,30.050 67.973,30.050 Z"/>
<path fill-rule="evenodd"  stroke="rgb(255, 255, 255)" stroke-width="1.076px" stroke-linecap="butt" stroke-linejoin="miter" fill="rgb(42, 177, 117)"
 d="M73.150,28.424 C73.161,28.424 73.172,28.422 73.182,28.419 C73.250,28.401 73.290,28.332 73.272,28.265 L71.802,22.778 C71.783,22.711 71.714,22.673 71.647,22.689 C71.580,22.707 71.540,22.776 71.558,22.843 L73.028,28.330 C73.043,28.387 73.094,28.424 73.150,28.424 Z"/>
<path fill-rule="evenodd"  stroke="rgb(255, 255, 255)" stroke-width="1.076px" stroke-linecap="butt" stroke-linejoin="miter" fill="rgb(42, 177, 117)"
 d="M78.449,27.251 C78.456,27.251 78.463,27.251 78.471,27.249 C78.539,27.237 78.585,27.172 78.573,27.104 L77.586,21.510 C77.574,21.442 77.507,21.395 77.440,21.408 C77.372,21.420 77.326,21.485 77.338,21.554 L78.325,27.147 C78.336,27.208 78.389,27.251 78.449,27.251 Z"/>
<path fill-rule="evenodd"  stroke="rgb(255, 255, 255)" stroke-width="1.076px" stroke-linecap="butt" stroke-linejoin="miter" fill="rgb(42, 177, 117)"
 d="M83.829,26.552 C83.832,26.552 83.836,26.552 83.840,26.552 C83.909,26.546 83.961,26.485 83.954,26.416 L83.459,20.757 C83.453,20.688 83.394,20.638 83.323,20.643 C83.253,20.649 83.202,20.710 83.208,20.780 L83.704,26.438 C83.709,26.503 83.764,26.552 83.829,26.552 Z"/>
<path fill-rule="evenodd"  stroke="rgb(255, 255, 255)" stroke-width="1.076px" stroke-linecap="butt" stroke-linejoin="miter" fill="rgb(42, 177, 117)"
 d="M95.807,17.846 C130.019,21.009 156.930,48.157 159.795,82.398 C159.800,82.464 159.855,82.513 159.920,82.513 C159.924,82.513 159.927,82.513 159.931,82.513 C159.1000,82.507 160.051,82.446 160.046,82.377 C158.660,65.811 151.427,50.165 139.681,38.322 C127.941,26.485 112.368,19.124 95.830,17.596 C95.762,17.590 95.700,17.640 95.693,17.710 C95.687,17.779 95.737,17.840 95.807,17.846 Z"/>
<path fill-rule="evenodd"  stroke="rgb(255, 255, 255)" stroke-width="1.076px" stroke-linecap="butt" stroke-linejoin="miter" fill="rgb(42, 177, 117)"
 d="M159.876,94.876 C159.807,94.871 159.746,94.920 159.739,94.989 C156.580,129.147 129.478,156.052 95.297,158.964 C95.228,158.970 95.176,159.031 95.182,159.100 C95.188,159.166 95.243,159.215 95.307,159.215 C95.311,159.215 95.315,159.215 95.318,159.215 C111.860,157.806 127.479,150.564 139.299,138.825 C151.114,127.091 158.462,111.531 159.990,95.013 C159.996,94.944 159.946,94.882 159.876,94.876 Z"/>
<path fill-rule="evenodd"  stroke="rgb(255, 255, 255)" stroke-width="1.076px" stroke-linecap="butt" stroke-linejoin="miter" fill="rgb(42, 177, 117)"
 d="M82.565,158.915 C48.555,155.754 21.674,128.766 18.646,94.742 C18.640,94.673 18.576,94.625 18.510,94.628 C18.441,94.634 18.389,94.695 18.396,94.764 C19.862,111.243 27.123,126.796 38.841,138.558 C50.556,150.317 66.076,157.636 82.542,159.166 C82.546,159.166 82.550,159.167 82.554,159.167 C82.618,159.167 82.673,159.118 82.679,159.052 C82.685,158.983 82.634,158.922 82.565,158.915 Z"/>
<path fill-rule="evenodd"  stroke="rgb(255, 255, 255)" stroke-width="1.076px" stroke-linecap="butt" stroke-linejoin="miter" fill="rgb(42, 177, 117)"
 d="M18.558,81.603 C18.562,81.603 18.566,81.603 18.570,81.603 C18.634,81.603 18.689,81.555 18.695,81.489 C21.965,47.630 48.930,20.857 82.814,17.827 C82.883,17.821 82.934,17.760 82.928,17.691 C82.921,17.621 82.860,17.573 82.791,17.576 C48.788,20.616 21.726,47.486 18.445,81.465 C18.438,81.534 18.489,81.596 18.558,81.603 Z"/>
<path fill-rule="evenodd"  stroke="rgb(255, 255, 255)" stroke-width="1.076px" stroke-linecap="butt" stroke-linejoin="miter" fill="rgb(42, 177, 117)"
 d="M93.505,9.461 C93.550,9.461 93.591,9.437 93.614,9.398 C93.636,9.359 93.636,9.311 93.614,9.272 L89.358,1.899 C89.335,1.861 89.294,1.837 89.249,1.837 C89.204,1.837 89.162,1.861 89.140,1.899 L84.883,9.272 C84.860,9.311 84.860,9.359 84.883,9.398 C84.905,9.437 84.947,9.461 84.992,9.461 L93.505,9.461 Z"/>
<path fill-rule="evenodd"  stroke="rgb(255, 255, 255)" stroke-width="1.076px" stroke-linecap="butt" stroke-linejoin="miter" fill="rgb(42, 177, 117)"
 d="M174.665,84.372 C174.642,84.333 174.601,84.310 174.556,84.310 L169.641,84.310 C169.597,84.310 169.555,84.333 169.533,84.372 L167.075,88.571 C167.052,88.610 167.052,88.659 167.075,88.698 L169.533,92.898 C169.555,92.937 169.597,92.960 169.641,92.960 L174.556,92.960 C174.601,92.960 174.642,92.937 174.665,92.898 L177.122,88.698 C177.145,88.659 177.145,88.610 177.122,88.571 L174.665,84.372 Z"/>
<path fill-rule="evenodd"  stroke="rgb(255, 255, 255)" stroke-width="1.076px" stroke-linecap="butt" stroke-linejoin="miter" fill="rgb(42, 177, 117)"
 d="M92.620,166.164 L85.821,166.164 C85.751,166.164 85.695,166.221 85.695,166.290 L85.695,173.089 C85.695,173.159 85.751,173.215 85.821,173.215 L92.620,173.215 C92.689,173.215 92.746,173.159 92.746,173.089 L92.746,166.290 C92.746,166.221 92.689,166.164 92.620,166.164 Z"/>
<path fill-rule="evenodd"  stroke="rgb(255, 255, 255)" stroke-width="1.076px" stroke-linecap="butt" stroke-linejoin="miter" fill="rgb(42, 177, 117)"
 d="M6.338,83.838 C3.693,83.838 1.542,85.990 1.542,88.635 C1.542,91.280 3.693,93.432 6.338,93.432 C8.983,93.432 11.135,91.280 11.135,88.635 C11.135,85.990 8.983,83.838 6.338,83.838 Z"/>
<path fill-rule="evenodd"  stroke="rgb(255, 255, 255)" stroke-width="1.614px" stroke-linecap="butt" stroke-linejoin="miter" fill="rgb(255, 255, 255)"
 d="M90.006,132.882 C89.885,132.882 89.764,132.844 89.661,132.769 L89.451,132.614 C84.892,129.254 76.035,122.075 67.925,111.747 C58.095,99.230 52.436,86.086 51.104,72.681 C50.753,69.144 50.683,65.524 50.897,61.922 C50.906,61.761 50.982,61.612 51.106,61.509 C51.229,61.406 51.390,61.359 51.550,61.379 C57.571,62.125 63.556,61.587 69.339,59.778 C78.833,56.809 85.586,51.039 89.579,46.721 C89.689,46.602 89.844,46.534 90.006,46.534 C90.169,46.534 90.323,46.602 90.434,46.721 C94.427,51.039 101.180,56.809 110.674,59.778 C116.457,61.587 122.442,62.125 128.463,61.379 C128.622,61.359 128.783,61.406 128.907,61.509 C129.030,61.612 129.106,61.761 129.116,61.922 C129.329,65.527 129.260,69.147 128.909,72.681 L128.329,72.623 L128.909,72.681 C127.577,86.086 121.918,99.230 112.088,111.747 C103.977,122.076 95.120,129.254 90.562,132.613 L90.351,132.769 C90.249,132.844 90.127,132.882 90.006,132.882 ZM52.026,62.607 C51.858,65.944 51.938,69.291 52.263,72.566 C55.347,103.619 81.747,125.463 90.006,131.577 C98.262,125.466 124.665,103.623 127.750,72.566 C128.075,69.294 128.154,65.947 127.987,62.607 C122.009,63.263 116.070,62.686 110.326,60.889 C100.919,57.947 94.142,52.332 90.006,47.968 C85.870,52.332 79.094,57.947 69.686,60.889 C63.943,62.686 58.004,63.263 52.026,62.607 Z"/>
<path fill-rule="evenodd"  stroke="rgb(255, 255, 255)" stroke-width="2.152px" stroke-linecap="butt" stroke-linejoin="miter" fill="rgb(255, 255, 255)"
 d="M90.006,120.584 C89.920,120.584 89.833,120.557 89.759,120.503 L89.609,120.392 C86.349,117.989 80.015,112.855 74.215,105.469 C67.185,96.518 63.138,87.118 62.186,77.531 C61.934,75.002 61.885,72.413 62.037,69.837 C62.044,69.722 62.098,69.615 62.187,69.542 C62.275,69.468 62.390,69.434 62.504,69.448 C66.810,69.982 71.091,69.597 75.226,68.304 C82.016,66.180 86.845,62.054 89.701,58.966 C89.779,58.881 89.890,58.832 90.006,58.832 C90.122,58.832 90.233,58.881 90.312,58.966 C93.167,62.054 97.997,66.180 104.787,68.304 C108.922,69.597 113.202,69.982 117.508,69.448 C117.623,69.434 117.737,69.468 117.826,69.542 C117.914,69.615 117.968,69.722 117.975,69.837 C118.128,72.415 118.078,75.004 117.827,77.531 L117.413,77.490 L117.827,77.531 C116.875,87.118 112.828,96.518 105.798,105.469 C99.997,112.856 93.663,117.989 90.404,120.392 L90.253,120.503 C90.180,120.557 90.093,120.584 90.006,120.584 ZM62.845,70.327 C62.725,72.713 62.782,75.107 63.014,77.449 C65.220,99.657 84.100,115.278 90.006,119.650 C95.911,115.280 114.792,99.660 116.999,77.449 L116.999,77.449 C117.231,75.109 117.288,72.715 117.168,70.327 C112.893,70.796 108.646,70.383 104.538,69.098 C97.810,66.994 92.964,62.979 90.006,59.858 C87.048,62.979 82.202,66.994 75.474,69.098 C71.367,70.383 67.120,70.796 62.845,70.327 Z"/>
</svg>