<?xml version="1.0" encoding="UTF-8"?>
<svg id="Object" xmlns="http://www.w3.org/2000/svg" viewBox="0 0 2010 2010">
  <defs>
    <style>
      .cls-1 {
        fill: #fff;
      }
    </style>
  </defs>
  <g id="logo">
    <path class="cls-1" d="M1243.29,1138.21c-54.71,78.95-132.86,168.29-227.28,242.17-164.71-122.01-368.56-383.79-410-710.22,36.01-14.43,72.95-27.01,110.81-37.63,8.31-2.31,16.62-4.62,25.05-6.69,46.52,313.15,187.11,474.29,274.14,566.05,6.81-6.81,43.4-51.6,76.53-93.27,13.5,1.62,27.01,3.81,40.4,6.46,37.74,7.27,74.68,18.47,110.35,33.13Z"/>
    <path class="cls-1" d="M1426.01,670.15c-10.85,75.6-27.47,140.01-47.21,197.5-43.17-18.93-87.72-34.51-133.32-46.52,19.16-58.06,38.21-131.36,44.67-195.3,8.43,2.08,16.74,4.39,25.05,6.69h.12c37.86,10.62,74.68,23.2,110.69,37.63Z"/>
    <path class="cls-1" d="M1684.73,816.86c-34.98-26.78-124.66-82.53-126.51-83.8,8.89-49.29,14.66-99.27,17.43-149.94-44.79-22.51-260.82-132.05-556.93-132.05h-5.54c-272.6,0-513.88,110.46-556.93,132.05,43.46,527.72,341.09,826.8,559.7,970.62,168.06-109.19,307.54-269.83,393.72-415.88-38.21-27.13-79.41-50.33-122.81-69.03-43.98-19.16-90.38-33.7-138.51-43.05-33.36-6.58-67.52-10.73-102.27-12.24-10.5-13.5-20.55-27.47-30.13-41.67-21.01-31.05-39.82-63.6-56.44-97.54,254.15-18.41,478.21,83.74,627.34,228.2-143.13,303.53-346.09,484.22-570.9,615.92C511.65,1451.76,339.95,930.9,319,633.79c-2.84-40.34-6.48-93.23-5.19-132.74,165.36-98.37,402.36-190.45,702.14-190.45s522.71,84.19,702.14,190.45c.12,71.55-4.05,187.06-33.36,315.81Z"/>
  </g>
</svg>