<svg 
 xmlns="http://www.w3.org/2000/svg"
 xmlns:xlink="http://www.w3.org/1999/xlink"
 width="116.363px" height="117.363px">
<path fill-rule="evenodd"  stroke="rgb(255, 255, 255)" stroke-width="4.242px" stroke-linecap="round" stroke-linejoin="round" fill="none"
 d="M57.097,80.094 C44.788,80.094 34.807,70.138 34.807,57.846 C34.807,45.560 44.788,35.603 57.097,35.603 C69.406,35.603 79.387,45.560 79.387,57.846 C79.387,70.138 69.406,80.094 57.097,80.094 ZM101.544,48.244 C100.374,42.815 98.233,37.740 95.309,33.225 L101.188,27.356 L87.613,13.818 L81.739,19.681 C77.210,16.762 72.132,14.625 66.692,13.457 L66.692,5.162 L47.502,5.162 L47.502,13.457 C42.063,14.625 36.978,16.762 32.455,19.681 L26.575,13.818 L13.006,27.356 L18.886,33.225 C15.961,37.740 13.814,42.815 12.650,48.244 L4.316,48.244 L4.304,67.399 L12.650,67.399 C13.814,72.828 15.955,77.903 18.886,82.418 L12.982,88.311 L26.545,101.861 L32.449,95.962 C36.978,98.881 42.063,101.018 47.502,102.186 L47.502,110.535 L66.692,110.535 L66.692,102.186 C72.132,101.018 77.210,98.881 81.739,95.962 L87.649,101.861 L101.213,88.311 L95.309,82.418 C98.233,77.903 100.374,72.828 101.544,67.399 L109.885,67.399 L109.885,48.244 L101.544,48.244 Z"/>
</svg>
