<svg 
 xmlns="http://www.w3.org/2000/svg"
 xmlns:xlink="http://www.w3.org/1999/xlink"
 width="120px" height="106px">
<path fill-rule="evenodd"  fill="rgb(255, 255, 255)"
 d="M45.786,100.423 C44.803,100.423 43.181,99.538 40.497,98.082 L39.652,97.618 C29.412,92.050 5.609,76.477 5.609,52.182 L5.609,28.591 C5.609,24.010 5.675,21.151 6.591,20.121 C7.563,19.032 10.602,18.448 15.499,17.623 C24.895,16.034 32.602,13.319 39.067,9.316 L39.387,9.111 C42.740,7.041 44.586,5.891 45.786,5.891 C46.992,5.891 48.837,7.035 52.185,9.111 L52.510,9.316 C58.969,13.313 66.677,16.034 76.079,17.623 C80.969,18.448 84.009,19.032 84.980,20.121 C85.903,21.151 85.969,24.010 85.969,28.591 L85.969,31.595 C85.969,32.985 87.097,34.111 88.490,34.111 C89.883,34.111 91.011,32.985 91.011,31.595 L91.011,28.591 C91.011,16.185 89.823,14.842 76.917,12.657 C68.172,11.182 61.062,8.690 55.163,5.042 L54.844,4.844 C50.707,2.279 48.427,0.865 45.786,0.865 C43.144,0.865 40.865,2.279 36.728,4.844 L36.408,5.042 C30.510,8.696 23.399,11.182 14.655,12.663 C1.755,14.842 0.561,16.185 0.561,28.591 L0.561,52.182 C0.561,79.180 26.210,96.041 37.240,102.042 L38.078,102.494 C41.582,104.408 43.512,105.455 45.786,105.455 C47.179,105.455 48.307,104.330 48.307,102.939 C48.307,101.549 47.179,100.423 45.786,100.423 "/>
<path fill-rule="evenodd"  fill="rgb(255, 255, 255)"
 d="M64.787,42.041 L44.233,60.774 L33.927,51.377 C32.896,50.444 31.303,50.517 30.363,51.540 C29.422,52.569 29.494,54.159 30.525,55.098 L42.533,66.047 C43.491,66.926 44.969,66.926 45.934,66.047 L68.182,45.755 C69.189,44.792 69.213,43.197 68.248,42.198 C67.319,41.235 65.800,41.168 64.787,42.041 "/>
<path fill-rule="evenodd"  fill="rgb(255, 255, 255)"
 d="M74.353,57.910 C74.353,65.898 80.836,72.369 88.839,72.369 C96.842,72.369 103.325,65.898 103.325,57.910 C103.325,49.928 96.842,43.451 88.839,43.451 C80.842,43.457 74.359,49.928 74.353,57.910 M98.283,57.910 C98.283,63.117 94.056,67.337 88.839,67.337 C83.623,67.337 79.395,63.117 79.395,57.910 C79.395,52.703 83.623,48.483 88.839,48.483 C94.050,48.489 98.277,52.709 98.283,57.910 "/>
<path fill-rule="evenodd"  fill="rgb(255, 255, 255)"
 d="M119.058,97.269 L118.810,96.601 C111.399,76.790 110.572,76.224 89.085,76.332 L87.939,76.339 C66.734,76.447 65.673,77.133 59.570,94.554 L58.599,97.317 C57.881,99.352 57.224,101.669 58.514,103.487 C59.805,105.305 62.181,105.455 64.304,105.455 L113.365,105.455 C115.518,105.455 117.918,105.299 119.215,103.445 C120.511,101.585 119.812,99.279 119.058,97.269 M113.365,100.423 L64.304,100.423 C63.677,100.423 63.236,100.399 62.929,100.369 C63.001,100.062 63.134,99.616 63.357,98.996 L64.334,96.215 C67.012,88.564 68.357,84.724 70.871,83.129 C73.507,81.455 78.639,81.425 87.969,81.377 L89.109,81.377 C98.746,81.323 103.582,81.299 106.357,83.189 C109.131,85.079 110.777,89.515 114.088,98.376 L114.336,99.039 C114.504,99.478 114.655,99.923 114.776,100.375 C114.306,100.417 113.835,100.429 113.365,100.423 "/>
</svg>
